<svg width="4653" height="1008" xmlns="http://www.w3.org/2000/svg" xmlns:xlink="http://www.w3.org/1999/xlink" xml:space="preserve" overflow="hidden"><defs><clipPath id="clip0"><rect x="428" y="8684" width="4653" height="1008"/></clipPath><clipPath id="clip1"><path d="M2005.68 8953.91 2057.68 9305.37 1706.22 9357.37 1654.22 9005.91Z" fill-rule="evenodd" clip-rule="evenodd"/></clipPath><clipPath id="clip2"><path d="M2005.68 8953.91 2057.68 9305.37 1706.22 9357.37 1654.22 9005.91Z" fill-rule="evenodd" clip-rule="evenodd"/></clipPath><clipPath id="clip3"><path d="M2005.68 8953.91 2057.68 9305.37 1706.22 9357.37 1654.22 9005.91Z" fill-rule="evenodd" clip-rule="evenodd"/></clipPath></defs><g clip-path="url(#clip0)" transform="translate(-428 -8684)"><g clip-path="url(#clip1)"><g clip-path="url(#clip2)"><g clip-path="url(#clip3)"><path d="M1720.51 9211.22C1720.51 9211.22 1808.44 9241.61 1901.96 9115.16L1860.3 9083.91 1984.78 9065.49 2003.2 9189.97 1964.53 9161.27C1964.22 9161.69 1864.08 9273.78 1720.51 9211.22Z" stroke="#0C6962" stroke-width="13.7976" fill="#159187"/></g></g></g><path d="M886 8940.5C886 8933.04 892.044 8927 899.5 8927L1067.5 8927C1074.96 8927 1081 8933.04 1081 8940.5L1081 8994.5C1081 9001.96 1074.96 9008 1067.5 9008L899.5 9008C892.044 9008 886 9001.96 886 8994.5Z" stroke="#5C5C5C" stroke-width="13.75" stroke-linejoin="round" stroke-miterlimit="10" fill="#7F7F7F" fill-rule="evenodd"/><path d="M1351 8940.5C1351 8933.04 1357.04 8927 1364.5 8927L1661.5 8927C1668.96 8927 1675 8933.04 1675 8940.5L1675 8994.5C1675 9001.96 1668.96 9008 1661.5 9008L1364.5 9008C1357.04 9008 1351 9001.96 1351 8994.5Z" stroke="#5C5C5C" stroke-width="13.75" stroke-linejoin="round" stroke-miterlimit="10" fill="#7F7F7F" fill-rule="evenodd"/><path d="M1945 8939.5C1945 8932.04 1951.04 8926 1958.5 8926L2693.5 8926C2700.96 8926 2707 8932.04 2707 8939.5L2707 8993.5C2707 9000.96 2700.96 9007 2693.5 9007L1958.5 9007C1951.04 9007 1945 9000.96 1945 8993.5Z" stroke="#5C5C5C" stroke-width="13.75" stroke-linejoin="round" stroke-miterlimit="10" fill="#7F7F7F" fill-rule="evenodd"/><path d="M886 9153.5C886 9146.04 892.044 9140 899.5 9140L1067.5 9140C1074.96 9140 1081 9146.04 1081 9153.5L1081 9207.5C1081 9214.96 1074.96 9221 1067.5 9221L899.5 9221C892.044 9221 886 9214.96 886 9207.5Z" stroke="#5C5C5C" stroke-width="13.75" stroke-linejoin="round" stroke-miterlimit="10" fill="#7F7F7F" fill-rule="evenodd"/><path d="M1351 9153.5C1351 9146.04 1357.04 9140 1364.5 9140L1661.5 9140C1668.96 9140 1675 9146.04 1675 9153.5L1675 9207.5C1675 9214.96 1668.96 9221 1661.5 9221L1364.5 9221C1357.04 9221 1351 9214.96 1351 9207.5Z" stroke="#5C5C5C" stroke-width="13.75" stroke-linejoin="round" stroke-miterlimit="10" fill="#7F7F7F" fill-rule="evenodd"/><path d="M0 0 140.679 81.1972" stroke="#5C5C5C" stroke-width="13.75" stroke-linejoin="round" stroke-miterlimit="10" fill="none" fill-rule="evenodd" transform="matrix(1 0 0 -1 1077 8925.2)"/><path d="M1357.68 8925.2 1217 8844" stroke="#5C5C5C" stroke-width="13.75" stroke-linejoin="round" stroke-miterlimit="10" fill="none" fill-rule="evenodd"/><path d="M0 0 135.222 81.1972" stroke="#5C5C5C" stroke-width="13.75" stroke-linejoin="round" stroke-miterlimit="10" fill="none" fill-rule="evenodd" transform="matrix(1 0 0 -1 1675 8925.2)"/><path d="M1945.22 8925.2 1810 8844" stroke="#5C5C5C" stroke-width="13.75" stroke-linejoin="round" stroke-miterlimit="10" fill="none" fill-rule="evenodd"/><path d="M0 0 138.551 81.1972" stroke="#5C5C5C" stroke-width="13.75" stroke-linejoin="round" stroke-miterlimit="10" fill="none" fill-rule="evenodd" transform="matrix(1 0 0 -1 1077 9138.2)"/><path d="M1215 9057 1353.55 9138.2" stroke="#5C5C5C" stroke-width="13.75" stroke-linejoin="round" stroke-miterlimit="10" fill="none" fill-rule="evenodd"/><text font-family="Open Sans,Open Sans_MSFontService,sans-serif" font-weight="400" font-size="92" transform="matrix(1 0 0 1 2107.77 9171)">Potential <tspan font-size="92" x="110.275" y="110">ISM</tspan><tspan font-size="92" x="-1552.39" y="-363">Reference</tspan></text><path d="M3187 8943.5C3187 8936.04 3193.04 8930 3200.5 8930L3368.5 8930C3375.96 8930 3382 8936.04 3382 8943.5L3382 8997.5C3382 9004.96 3375.96 9011 3368.5 9011L3200.5 9011C3193.04 9011 3187 9004.96 3187 8997.5Z" stroke="#5C5C5C" stroke-width="13.75" stroke-linejoin="round" stroke-miterlimit="10" fill="#7F7F7F" fill-rule="evenodd"/><path d="M3652 8943.5C3652 8936.04 3658.04 8930 3665.5 8930L3961.5 8930C3968.96 8930 3975 8936.04 3975 8943.5L3975 8997.5C3975 9004.96 3968.96 9011 3961.5 9011L3665.5 9011C3658.04 9011 3652 9004.96 3652 8997.5Z" stroke="#5C5C5C" stroke-width="13.75" stroke-linejoin="round" stroke-miterlimit="10" fill="#7F7F7F" fill-rule="evenodd"/><path d="M4246 8942.5C4246 8935.04 4252.04 8929 4259.5 8929L4994.5 8929C5001.96 8929 5008 8935.04 5008 8942.5L5008 8996.5C5008 9003.96 5001.96 9010 4994.5 9010L4259.5 9010C4252.04 9010 4246 9003.96 4246 8996.5Z" stroke="#5C5C5C" stroke-width="13.75" stroke-linejoin="round" stroke-miterlimit="10" fill="#7F7F7F" fill-rule="evenodd"/><path d="M3187 9157.5C3187 9150.04 3193.04 9144 3200.5 9144L3368.5 9144C3375.96 9144 3382 9150.04 3382 9157.5L3382 9211.5C3382 9218.96 3375.96 9225 3368.5 9225L3200.5 9225C3193.04 9225 3187 9218.96 3187 9211.5Z" stroke="#5C5C5C" stroke-width="13.75" stroke-linejoin="round" stroke-miterlimit="10" fill="#7F7F7F" fill-rule="evenodd"/><path d="M3652 9157.5C3652 9150.04 3658.04 9144 3665.5 9144L3961.5 9144C3968.96 9144 3975 9150.04 3975 9157.5L3975 9211.5C3975 9218.96 3968.96 9225 3961.5 9225L3665.5 9225C3658.04 9225 3652 9218.96 3652 9211.5Z" stroke="#5C5C5C" stroke-width="13.75" stroke-linejoin="round" stroke-miterlimit="10" fill="#7F7F7F" fill-rule="evenodd"/><path d="M0 0 140.679 81.1972" stroke="#5C5C5C" stroke-width="13.75" stroke-linejoin="round" stroke-miterlimit="10" fill="none" fill-rule="evenodd" transform="matrix(1 0 0 -1 3378 8928.2)"/><path d="M3658.68 8928.2 3518 8847" stroke="#5C5C5C" stroke-width="13.75" stroke-linejoin="round" stroke-miterlimit="10" fill="none" fill-rule="evenodd"/><path d="M0 0 135.222 81.1972" stroke="#5C5C5C" stroke-width="13.75" stroke-linejoin="round" stroke-miterlimit="10" fill="none" fill-rule="evenodd" transform="matrix(1 0 0 -1 3975 8928.2)"/><path d="M4246.22 8928.2 4111 8847" stroke="#5C5C5C" stroke-width="13.75" stroke-linejoin="round" stroke-miterlimit="10" fill="none" fill-rule="evenodd"/><path d="M0 0 138.551 81.1972" stroke="#5C5C5C" stroke-width="13.75" stroke-linejoin="round" stroke-miterlimit="10" fill="none" fill-rule="evenodd" transform="matrix(1 0 0 -1 3378 9142.2)"/><path d="M3516 9061 3654.55 9142.2" stroke="#5C5C5C" stroke-width="13.75" stroke-linejoin="round" stroke-miterlimit="10" fill="none" fill-rule="evenodd"/><text font-family="Open Sans,Open Sans_MSFontService,sans-serif" font-weight="400" font-size="92" transform="matrix(1 0 0 1 2856.22 8798)">Reference</text><path d="M3187 9614.67C3187 9607.12 3193.12 9601 3200.67 9601L3368.33 9601C3375.88 9601 3382 9607.12 3382 9614.67L3382 9669.33C3382 9676.88 3375.88 9683 3368.33 9683L3200.67 9683C3193.12 9683 3187 9676.88 3187 9669.33Z" stroke="#B4643B" stroke-width="13.75" stroke-linejoin="round" stroke-miterlimit="10" fill="#F58A53" fill-rule="evenodd"/><path d="M3652 9614.67C3652 9607.12 3658.12 9601 3665.67 9601L3961.33 9601C3968.88 9601 3975 9607.12 3975 9614.67L3975 9669.33C3975 9676.88 3968.88 9683 3961.33 9683L3665.67 9683C3658.12 9683 3652 9676.88 3652 9669.33Z" stroke="#B4643B" stroke-width="13.75" stroke-linejoin="round" stroke-miterlimit="10" fill="#F58A53" fill-rule="evenodd"/><path d="M0 0 138.551 81.1972" stroke="#5C5C5C" stroke-width="13.75" stroke-linejoin="round" stroke-miterlimit="10" fill="none" fill-rule="evenodd" transform="matrix(1 0 0 -1 3378 9599.2)"/><path d="M3516 9518 3654.55 9599.2" stroke="#5C5C5C" stroke-width="13.75" stroke-linejoin="round" stroke-miterlimit="10" fill="none" fill-rule="evenodd"/><path d="M3230.17 9084.61 3757.72 9256.02" stroke="#FF0000" stroke-width="20.625" stroke-linejoin="round" stroke-miterlimit="10" fill="none" fill-rule="evenodd"/><path d="M0 0 480.39 277.353" stroke="#FF0000" stroke-width="20.625" stroke-linejoin="round" stroke-miterlimit="10" fill="none" fill-rule="evenodd" transform="matrix(0.978148 0.207912 0.207912 -0.978148 3255.28 9261.5)"/><path d="M3525.81 9238.5 3525.81 9300.38 3505.19 9300.38 3505.19 9238.5ZM3525.81 9321 3525.81 9382.88 3505.19 9382.88 3505.19 9321ZM3525.81 9403.5 3525.81 9424.96 3505.19 9424.96 3505.19 9403.5ZM3546.44 9414.65 3515.5 9476.53 3484.56 9414.65Z" fill="#0C6962"/><text font-family="Open Sans,Open Sans_MSFontService,sans-serif" font-weight="400" font-size="92" transform="matrix(1 0 0 1 3568.77 9384)">FSM</text><path d="M0 307.382 0 259.909C-4.04853e-14 131.511 104.087 27.4235 232.485 27.4235L545.459 27.4228 545.459 0 635.995 53.4322 545.459 106.864 545.459 79.4417 232.485 79.4417C132.816 79.4417 52.0182 160.24 52.0182 259.909L52.0182 307.382Z" stroke="#0C6962" stroke-width="9.16667" stroke-linejoin="round" stroke-miterlimit="10" fill="#159187" fill-rule="evenodd" transform="matrix(0.281307 -0.959618 -0.959618 -0.281307 4319.05 9750.57)"/><text font-family="Open Sans,Open Sans_MSFontService,sans-serif" font-weight="400" font-size="92" transform="matrix(1 0 0 1 4551.28 9451)">Simulate <tspan font-size="92" x="-63.3189" y="110">reliable ISM</tspan><tspan font-size="92" x="-1707.59" y="20">Simulated</tspan><tspan font-size="92" x="-1591.29" y="130">read</tspan></text></g></svg>