<svg width="4466" height="1711" xmlns="http://www.w3.org/2000/svg" xmlns:xlink="http://www.w3.org/1999/xlink" xml:space="preserve" overflow="hidden"><defs><clipPath id="clip0"><rect x="35" y="-12" width="4466" height="1711"/></clipPath></defs><g clip-path="url(#clip0)" transform="translate(-35 12)"><rect x="846.5" y="338.5" width="74.9999" height="1068" stroke="#0C6962" stroke-width="4.58333" stroke-miterlimit="8" fill="#0C6962" fill-opacity="0.4"/><path d="M306.5 301.5 306.5 301.5 306.5 1406.54 1466.5 1406.54 1466.5 1406.54 306.5 1406.54Z" stroke="#000000" stroke-width="20.625" stroke-miterlimit="8" fill="none" fill-rule="evenodd"/><text font-family="Arial,Arial_MSFontService,sans-serif" font-weight="400" font-size="92" transform="matrix(-1.83697e-16 -1 1 -1.83697e-16 152.049 979)">P(x)</text><text font-family="Arial,Arial_MSFontService,sans-serif" font-weight="400" font-size="92" transform="matrix(1 0 0 1 789.06 1621)">TPM<tspan font-size="69" x="-446.531" y="-108">0            5           10         15         20</tspan></text><text font-family="Arial,Arial_MSFontService,sans-serif" font-weight="400" font-size="69" transform="matrix(-1.83697e-16 -1 1 -1.83697e-16 272.973 1373)">0         0.25        0.5         0.75       1</text><text font-family="Arial,Arial_MSFontService,sans-serif" font-weight="400" font-size="83" transform="matrix(1 0 0 1 1113.36 416)">Same<tspan font-size="83" x="-91.6666" y="99">expression</tspan><tspan font-size="83" x="-103.125" y="198">value</tspan><tspan font-size="83" x="116.875" y="198">for</tspan><tspan font-size="83" x="236.042" y="198">all</tspan><tspan font-size="83" x="-82.5" y="297">transcripts</tspan></text><rect x="2115.5" y="1292.5" width="36" height="108" stroke="#F58A53" stroke-width="4.58333" stroke-miterlimit="8" fill="#F58A53" fill-opacity="0.4"/><rect x="2154.5" y="971.5" width="36.9998" height="429" stroke="#F58A53" stroke-width="4.58333" stroke-miterlimit="8" fill="#F58A53" fill-opacity="0.4"/><rect x="2190.5" y="546.5" width="37.0002" height="854" stroke="#F58A53" stroke-width="4.58333" stroke-miterlimit="8" fill="#F58A53" fill-opacity="0.4"/><rect x="2228.5" y="260.5" width="37.0002" height="1140" stroke="#F58A53" stroke-width="4.58333" stroke-miterlimit="8" fill="#F58A53" fill-opacity="0.4"/><text font-family="Arial,Arial_MSFontService,sans-serif" font-weight="400" font-size="92" transform="matrix(-1.83697e-16 -1 1 -1.83697e-16 1652.67 978)">P(x)</text><text font-family="Arial,Arial_MSFontService,sans-serif" font-weight="400" font-size="92" transform="matrix(1 0 0 1 2289.68 1623)">TPM<tspan font-size="69" x="-449.969" y="-112">0          20          40          60        80</tspan></text><text font-family="Arial,Arial_MSFontService,sans-serif" font-weight="400" font-size="69" transform="matrix(-1.83697e-16 -1 1 -1.83697e-16 1773.59 1372)">0                      0.1                       0.2</text><rect x="1817.5" y="1293.5" width="37.0001" height="107" stroke="#FDC659" stroke-width="4.58333" stroke-miterlimit="8" fill="#FDC659" fill-opacity="0.4"/><rect x="1857.5" y="971.5" width="35.9998" height="429" stroke="#FDC659" stroke-width="4.58333" stroke-miterlimit="8" fill="#FDC659" fill-opacity="0.4"/><rect x="1893.5" y="546.5" width="36.0001" height="854" stroke="#FDC659" stroke-width="4.58333" stroke-miterlimit="8" fill="#FDC659" fill-opacity="0.4"/><rect x="1929.5" y="260.5" width="37.0001" height="1140" stroke="#FDC659" stroke-width="4.58333" stroke-miterlimit="8" fill="#FDC659" fill-opacity="0.4"/><rect x="1966.5" y="260.5" width="35.9998" height="1140" stroke="#FDC659" stroke-width="4.58333" stroke-miterlimit="8" fill="#FDC659" fill-opacity="0.4"/><rect x="2004.5" y="487.5" width="36.0001" height="913" stroke="#FDC659" stroke-width="4.58333" stroke-miterlimit="8" fill="#FDC659" fill-opacity="0.4"/><rect x="2041.5" y="789.5" width="37.0002" height="611" stroke="#FDC659" stroke-width="4.58333" stroke-miterlimit="8" fill="#FDC659" fill-opacity="0.4"/><rect x="2078.5" y="1051.5" width="35.9998" height="349" stroke="#FDC659" stroke-width="4.58333" stroke-miterlimit="8" fill="#FDC659" fill-opacity="0.4"/><rect x="2115.5" y="1226.5" width="37.0002" height="174" stroke="#FDC659" stroke-width="4.58333" stroke-miterlimit="8" fill="#FDC659" fill-opacity="0.4"/><rect x="2155.5" y="1322.5" width="36.9998" height="78" stroke="#FDC659" stroke-width="4.58333" stroke-miterlimit="8" fill="#FDC659" fill-opacity="0.4"/><rect x="2192.5" y="1366.5" width="37.0002" height="34" stroke="#FDC659" stroke-width="4.58333" stroke-miterlimit="8" fill="#FDC659" fill-opacity="0.4"/><rect x="2232.5" y="1383.5" width="35.9998" height="16.9999" stroke="#FDC659" stroke-width="4.58333" stroke-miterlimit="8" fill="#FDC659" fill-opacity="0.4"/><rect x="2265.5" y="260.5" width="35.9998" height="1140" stroke="#F58A53" stroke-width="4.58333" stroke-miterlimit="8" fill="#F58A53" fill-opacity="0.4"/><rect x="2301.5" y="487.5" width="37.0002" height="913" stroke="#F58A53" stroke-width="4.58333" stroke-miterlimit="8" fill="#F58A53" fill-opacity="0.4"/><rect x="2338.5" y="789.5" width="37.0002" height="611" stroke="#F58A53" stroke-width="4.58333" stroke-miterlimit="8" fill="#F58A53" fill-opacity="0.4"/><rect x="2375.5" y="1051.5" width="36.9998" height="349" stroke="#F58A53" stroke-width="4.58333" stroke-miterlimit="8" fill="#F58A53" fill-opacity="0.4"/><rect x="2407.5" y="1225.5" width="35.9998" height="175" stroke="#F58A53" stroke-width="4.58333" stroke-miterlimit="8" fill="#F58A53" fill-opacity="0.4"/><rect x="2441.5" y="1322.5" width="35.9998" height="78" stroke="#F58A53" stroke-width="4.58333" stroke-miterlimit="8" fill="#F58A53" fill-opacity="0.4"/><rect x="2478.5" y="1366.5" width="36" height="34" stroke="#F58A53" stroke-width="4.58333" stroke-miterlimit="8" fill="#F58A53" fill-opacity="0.4"/><rect x="2517.5" y="1383.5" width="36.9998" height="16.9999" stroke="#F58A53" stroke-width="4.58333" stroke-miterlimit="8" fill="#F58A53" fill-opacity="0.4"/><rect x="2556.5" y="1383.5" width="37.0002" height="16.9999" stroke="#F58A53" stroke-width="4.58333" stroke-miterlimit="8" fill="#F58A53" fill-opacity="0.4"/><path d="M1807.5 300.5 1807.5 300.5 1807.5 1404.47 2966.5 1404.47 2966.5 1404.47 1807.5 1404.47Z" stroke="#000000" stroke-width="20.625" stroke-miterlimit="8" fill="none" fill-rule="evenodd"/><text font-family="Arial,Arial_MSFontService,sans-serif" font-weight="400" font-size="83" transform="matrix(1 0 0 1 2651.13 394)">Novel<tspan font-size="83" x="0" y="99">Known</tspan></text><rect x="2568.5" y="330.5" width="65" height="65.0003" stroke="#FDC659" stroke-width="4.58333" stroke-miterlimit="8" fill="#FDC659" fill-opacity="0.4"/><rect x="2568.5" y="434.5" width="65" height="65" stroke="#F58A53" stroke-width="4.58333" stroke-miterlimit="8" fill="#F58A53" fill-opacity="0.4"/><text font-family="Arial,Arial_MSFontService,sans-serif" font-weight="400" font-size="92" transform="matrix(-1.83697e-16 -1 1 -1.83697e-16 3153.55 977)">P(x)</text><text font-family="Arial,Arial_MSFontService,sans-serif" font-weight="400" font-size="92" transform="matrix(1 0 0 1 3790.56 1622)">TPM<tspan font-size="69" x="-449.969" y="-111">0         50          100        150       200</tspan></text><text font-family="Arial,Arial_MSFontService,sans-serif" font-weight="400" font-size="69" transform="matrix(-1.83697e-16 -1 1 -1.83697e-16 3274.48 1373)">0                      0.3                       0.6</text><rect x="3321.5" y="320.5" width="36.9998" height="1076" stroke="#0C6962" stroke-width="4.58333" stroke-miterlimit="8" fill="#0C6962" fill-opacity="0.4"/><rect x="3358.5" y="1187.5" width="37.0002" height="209" stroke="#0C6962" stroke-width="4.58333" stroke-miterlimit="8" fill="#0C6962" fill-opacity="0.4"/><rect x="3395.5" y="1283.5" width="36" height="113" stroke="#0C6962" stroke-width="4.58333" stroke-miterlimit="8" fill="#0C6962" fill-opacity="0.4"/><rect x="3436.5" y="1357.5" width="36" height="39.0002" stroke="#0C6962" stroke-width="4.58333" stroke-miterlimit="8" fill="#0C6962" fill-opacity="0.4"/><rect x="3477.5" y="1378.5" width="37.0002" height="18.0002" stroke="#0C6962" stroke-width="4.58333" stroke-miterlimit="8" fill="#0C6962" fill-opacity="0.4"/><rect x="3518.5" y="1379.5" width="36.9998" height="16.0001" stroke="#0C6962" stroke-width="4.58333" stroke-miterlimit="8" fill="#0C6962" fill-opacity="0.4"/><rect x="3560.5" y="1379.5" width="36" height="16.0001" stroke="#0C6962" stroke-width="4.58333" stroke-miterlimit="8" fill="#0C6962" fill-opacity="0.4"/><rect x="3601.5" y="1380.5" width="37.0002" height="16.9999" stroke="#0C6962" stroke-width="4.58333" stroke-miterlimit="8" fill="#0C6962" fill-opacity="0.4"/><rect x="3642.5" y="1383.5" width="37.0002" height="15.9998" stroke="#0C6962" stroke-width="4.58333" stroke-miterlimit="8" fill="#0C6962" fill-opacity="0.4"/><rect x="3684.5" y="1386.5" width="35.9998" height="16.0001" stroke="#0C6962" stroke-width="4.58333" stroke-miterlimit="8" fill="#0C6962" fill-opacity="0.4"/><rect x="3725.5" y="1386.5" width="36.9998" height="16.0001" stroke="#0C6962" stroke-width="4.58333" stroke-miterlimit="8" fill="#0C6962" fill-opacity="0.4"/><rect x="3768.5" y="1386.5" width="37.0002" height="16.0001" stroke="#0C6962" stroke-width="4.58333" stroke-miterlimit="8" fill="#0C6962" fill-opacity="0.4"/><rect x="3809.5" y="1386.5" width="37.0002" height="16.0001" stroke="#0C6962" stroke-width="4.58333" stroke-miterlimit="8" fill="#0C6962" fill-opacity="0.4"/><rect x="3852.5" y="1392.5" width="37.0002" height="15.9998" stroke="#0C6962" stroke-width="4.58333" stroke-miterlimit="8" fill="#0C6962" fill-opacity="0.4"/><rect x="3894.5" y="1392.5" width="36" height="15.9998" stroke="#0C6962" stroke-width="4.58333" stroke-miterlimit="8" fill="#0C6962" fill-opacity="0.4"/><rect x="3937.5" y="1392.5" width="35.9998" height="16.9999" stroke="#0C6962" stroke-width="4.58333" stroke-miterlimit="8" fill="#0C6962" fill-opacity="0.4"/><rect x="3978.5" y="1392.5" width="36.9998" height="16.9999" stroke="#0C6962" stroke-width="4.58333" stroke-miterlimit="8" fill="#0C6962" fill-opacity="0.4"/><path d="M3308.5 299.5 3308.5 299.5 3308.5 1403.47 4467.5 1403.47 4467.5 1403.47 3308.5 1403.47Z" stroke="#000000" stroke-width="20.625" stroke-miterlimit="8" fill="none" fill-rule="evenodd"/><path d="M4018 1392 4408.44 1392" stroke="#0C6962" stroke-width="2.29167" stroke-miterlimit="8" fill="none" fill-rule="evenodd"/><text font-family="Arial,Arial_MSFontService,sans-serif" font-weight="400" font-size="83" transform="matrix(1 0 0 1 3607.34 397)">Raw <tspan font-size="83" x="187.917" y="0">counts</tspan><tspan font-size="83" x="453.75" y="0">mapped</tspan><tspan font-size="83" x="98.5418" y="99">with</tspan><tspan font-weight="700" font-size="83" x="268.125" y="99">minimap2</tspan><tspan font-weight="700" font-size="101" x="-2947.66" y="-280">equal</tspan><tspan font-weight="700" font-size="101" x="-1478.88" y="-280">custom</tspan><tspan font-weight="700" font-size="101" x="-8.06372" y="-280">sample</tspan></text></g></svg>