<svg width="1838" height="1134" xmlns="http://www.w3.org/2000/svg" xmlns:xlink="http://www.w3.org/1999/xlink" xml:space="preserve" overflow="hidden"><defs><clipPath id="clip0"><rect x="4313" y="6289" width="1838" height="1134"/></clipPath></defs><g clip-path="url(#clip0)" transform="translate(-4313 -6289)"><path d="M5152.69 6472.39C5170.29 6454.99 5198.66 6455.16 5216.07 6472.77L5216.21 6472.94 5216.22 6472.93 5365.62 6624.05C5439.22 6698.5 5438.53 6818.51 5364.08 6892.11 5289.63 6965.71 5169.62 6965.02 5096.02 6890.58L5019.16 6812.83 5019.16 6812.83 5019.15 6812.83 5019.05 6812.72 5019.06 6812.71 5013.45 6805.76C5002.06 6788.3 5004.1 6764.67 5019.5 6749.45 5034.89 6734.23 5058.54 6732.46 5075.88 6744.05L5082.76 6749.74 5082.77 6749.73 5082.87 6749.84 5082.87 6749.84 5082.87 6749.84 5159.69 6827.54C5198.5 6866.8 5261.79 6867.16 5301.05 6828.35 5340.31 6789.54 5340.67 6726.26 5301.86 6687L5152.51 6535.92 5152.52 6535.91 5152.35 6535.76C5134.94 6518.16 5135.1 6489.78 5152.69 6472.39Z" fill="#D31238" fill-rule="evenodd"/><path d="M5238.59 6763.77C5220.99 6781.17 5192.62 6781 5175.21 6763.39L5175.07 6763.22 5175.05 6763.23 5025.66 6612.12C4952.06 6537.67 4952.75 6417.65 5027.2 6344.05 5101.65 6270.45 5221.66 6271.14 5295.26 6345.59L5372.12 6423.33 5372.12 6423.33 5372.12 6423.33 5372.23 6423.44 5372.22 6423.45 5377.83 6430.4C5389.22 6447.86 5387.18 6471.49 5371.78 6486.71 5356.38 6501.93 5332.74 6503.7 5315.4 6492.11L5308.52 6486.42 5308.51 6486.43 5308.41 6486.33 5308.4 6486.33 5308.4 6486.33 5231.58 6408.62C5192.77 6369.36 5129.49 6369 5090.23 6407.81 5050.97 6446.62 5050.61 6509.91 5089.42 6549.16L5238.77 6700.24 5238.76 6700.26 5238.93 6700.4C5256.33 6718.01 5256.18 6746.38 5238.59 6763.77Z" fill="#D31238" fill-rule="evenodd"/><text fill="#D31238" font-family="Gontserrat,Gontserrat_MSFontService,sans-serif" font-weight="400" font-size="252" transform="matrix(1 0 0 1 4465.17 7209)">SQANTI<tspan font-size="252" x="962.5" y="0">-</tspan><tspan font-weight="700" font-size="252" x="1054.74" y="0">SIM</tspan></text></g></svg>