<svg width="2208" height="2318" xmlns="http://www.w3.org/2000/svg" xmlns:xlink="http://www.w3.org/1999/xlink" xml:space="preserve" overflow="hidden"><defs><clipPath id="clip0"><rect x="27" y="88" width="2208" height="2318"/></clipPath><clipPath id="clip1"><rect x="1377" y="903" width="808" height="270"/></clipPath><clipPath id="clip2"><rect x="1377" y="903" width="808" height="270"/></clipPath><clipPath id="clip3"><rect x="1377" y="903" width="808" height="270"/></clipPath><clipPath id="clip4"><rect x="1377" y="903" width="808" height="270"/></clipPath><clipPath id="clip5"><rect x="1589" y="2145" width="262" height="229"/></clipPath><clipPath id="clip6"><rect x="1589" y="2145" width="262" height="229"/></clipPath><clipPath id="clip7"><rect x="1589" y="2145" width="262" height="229"/></clipPath><clipPath id="clip8"><rect x="1589" y="2145" width="262" height="229"/></clipPath><clipPath id="clip9"><rect x="1848" y="2147" width="261" height="228"/></clipPath><clipPath id="clip10"><rect x="1848" y="2147" width="261" height="228"/></clipPath><clipPath id="clip11"><rect x="1848" y="2147" width="261" height="228"/></clipPath><clipPath id="clip12"><rect x="1848" y="2147" width="261" height="228"/></clipPath><clipPath id="clip13"><rect x="1504" y="338" width="66" height="66"/></clipPath><clipPath id="clip14"><rect x="1504" y="338" width="66" height="66"/></clipPath><clipPath id="clip15"><rect x="1504" y="338" width="66" height="66"/></clipPath><clipPath id="clip16"><path d="M467.494 610.542 532.09 658.238 484.395 722.834 419.798 675.138Z" fill-rule="evenodd" clip-rule="evenodd"/></clipPath><clipPath id="clip17"><path d="M467.494 610.542 532.09 658.238 484.395 722.834 419.798 675.138Z" fill-rule="evenodd" clip-rule="evenodd"/></clipPath><clipPath id="clip18"><path d="M467.494 610.542 532.09 658.238 484.395 722.834 419.798 675.138Z" fill-rule="evenodd" clip-rule="evenodd"/></clipPath><clipPath id="clip19"><path d="M517.881 621.012 576.834 664.541 533.305 723.495 474.352 679.966Z" fill-rule="evenodd" clip-rule="evenodd"/></clipPath><clipPath id="clip20"><path d="M517.881 621.012 576.834 664.541 533.305 723.495 474.352 679.966Z" fill-rule="evenodd" clip-rule="evenodd"/></clipPath><clipPath id="clip21"><path d="M517.881 621.012 576.834 664.541 533.305 723.495 474.352 679.966Z" fill-rule="evenodd" clip-rule="evenodd"/></clipPath><clipPath id="clip22"><rect x="744" y="460" width="187" height="161"/></clipPath><clipPath id="clip23"><rect x="744" y="460" width="187" height="161"/></clipPath><clipPath id="clip24"><rect x="744" y="460" width="187" height="161"/></clipPath><clipPath id="clip25"><path d="M838.312 506.446 930.517 540.692 896.27 632.898 804.065 598.651Z" fill-rule="evenodd" clip-rule="evenodd"/></clipPath><clipPath id="clip26"><path d="M838.312 506.446 930.517 540.692 896.27 632.898 804.065 598.651Z" fill-rule="evenodd" clip-rule="evenodd"/></clipPath><clipPath id="clip27"><path d="M838.312 506.446 930.517 540.692 896.27 632.898 804.065 598.651Z" fill-rule="evenodd" clip-rule="evenodd"/></clipPath><clipPath id="clip28"><rect x="27" y="1707" width="125" height="122"/></clipPath><clipPath id="clip29"><rect x="27" y="1707" width="125" height="122"/></clipPath><clipPath id="clip30"><rect x="27" y="1707" width="125" height="122"/></clipPath><clipPath id="clip31"><rect x="796" y="1961" width="104" height="132"/></clipPath><clipPath id="clip32"><rect x="796" y="1961" width="104" height="132"/></clipPath><clipPath id="clip33"><rect x="796" y="1961" width="104" height="132"/></clipPath><clipPath id="clip34"><rect x="796" y="1961" width="104" height="132"/></clipPath><clipPath id="clip35"><rect x="801" y="2030" width="15" height="15"/></clipPath><clipPath id="clip36"><rect x="801" y="2030" width="15" height="15"/></clipPath><clipPath id="clip37"><rect x="801" y="2030" width="15" height="15"/></clipPath><clipPath id="clip38"><rect x="801" y="2068" width="15" height="15"/></clipPath><clipPath id="clip39"><rect x="801" y="2068" width="15" height="15"/></clipPath><clipPath id="clip40"><rect x="801" y="2068" width="15" height="15"/></clipPath><clipPath id="clip41"><rect x="801" y="2049" width="15" height="15"/></clipPath><clipPath id="clip42"><rect x="801" y="2049" width="15" height="15"/></clipPath><clipPath id="clip43"><rect x="801" y="2049" width="15" height="15"/></clipPath><clipPath id="clip44"><rect x="852" y="2034" width="48" height="49"/></clipPath><clipPath id="clip45"><rect x="852" y="2034" width="48" height="49"/></clipPath><clipPath id="clip46"><rect x="852" y="2034" width="48" height="49"/></clipPath><clipPath id="clip47"><rect x="862" y="2045" width="19" height="19"/></clipPath><clipPath id="clip48"><rect x="862" y="2045" width="19" height="19"/></clipPath><clipPath id="clip49"><rect x="862" y="2045" width="19" height="19"/></clipPath></defs><g clip-path="url(#clip0)" transform="translate(-27 -88)"><g clip-path="url(#clip1)"><g clip-path="url(#clip2)"><g clip-path="url(#clip3)"><g clip-path="url(#clip4)"><path d="M153.084 61.2156 166.648 61.2156 166.648 254.357 153.084 254.357Z" stroke="#0C6962" stroke-width="0.828867" stroke-miterlimit="8" fill="#0C6962" fill-opacity="0.4" transform="matrix(1.00043 0 0 1 1370.67 865.746)"/><path d="M55.4286 54.5244 55.4286 54.5244 55.4286 254.364 265.207 254.364 265.207 254.364 55.4286 254.364Z" stroke="#000000" stroke-width="3.7299" stroke-miterlimit="8" fill="none" fill-rule="evenodd" transform="matrix(1.00043 0 0 1 1370.67 865.746)"/><text font-family="Arial,Arial_MSFontService,sans-serif" font-weight="400" font-size="92" transform="matrix(-3.32349e-17 -0.180844 0.180922 -3.32205e-17 1398.18 1043)">P<tspan font-size="92" x="60.826" y="1.11735e-14">(</tspan><tspan font-size="92" x="94.0038" y="1.72682e-14">x</tspan><tspan font-size="92" x="138.241" y="2.53944e-14">)</tspan></text><text font-family="Arial,Arial_MSFontService,sans-serif" font-weight="400" font-size="92" transform="matrix(0.180922 0 0 0.180844 1513.43 1159)">TPM<tspan font-size="69" x="-446.532" y="-110.593">0            5           10         15         20</tspan></text><text font-family="Arial,Arial_MSFontService,sans-serif" font-weight="400" font-size="69" transform="matrix(-3.32349e-17 -0.180844 0.180922 -3.32205e-17 1420.05 1114)">0         0<tspan font-size="69" x="248.833" y="4.571e-14">.</tspan><tspan font-size="69" x="265.422" y="4.87573e-14">25        0</tspan><tspan font-size="69" x="530.845" y="9.75146e-14">.</tspan><tspan font-size="69" x="552.963" y="1.01578e-13">5         0</tspan><tspan font-size="69" x="796.267" y="1.46272e-13">.</tspan><tspan font-size="69" x="818.386" y="1.50335e-13">75       1</tspan></text><text font-family="Arial,Arial_MSFontService,sans-serif" font-weight="400" font-size="83" transform="matrix(0.180922 0 0 0.180844 1572.1 941)">Same<tspan font-size="83" x="-91.6662" y="99.5334">expression</tspan><tspan font-size="83" x="-103.125" y="199.067">value</tspan><tspan font-size="83" x="116.875" y="199.067">for</tspan><tspan font-size="83" x="236.042" y="199.067">all</tspan><tspan font-size="83" x="-82.4996" y="298.6">transcripts</tspan></text><path d="M382.575 233.741 389.086 233.741 389.086 253.272 382.575 253.272Z" stroke="#F58A53" stroke-width="0.828867" stroke-miterlimit="8" fill="#F58A53" fill-opacity="0.4" transform="matrix(1.00043 0 0 1 1370.67 865.746)"/><path d="M389.628 175.69 396.319 175.69 396.319 253.272 389.628 253.272Z" stroke="#F58A53" stroke-width="0.828867" stroke-miterlimit="8" fill="#F58A53" fill-opacity="0.4" transform="matrix(1.00043 0 0 1 1370.67 865.746)"/><path d="M396.138 98.8312 402.83 98.8312 402.83 253.272 396.138 253.272Z" stroke="#F58A53" stroke-width="0.828867" stroke-miterlimit="8" fill="#F58A53" fill-opacity="0.4" transform="matrix(1.00043 0 0 1 1370.67 865.746)"/><path d="M403.01 47.1098 409.702 47.1098 409.702 253.272 403.01 253.272Z" stroke="#F58A53" stroke-width="0.828867" stroke-miterlimit="8" fill="#F58A53" fill-opacity="0.4" transform="matrix(1.00043 0 0 1 1370.67 865.746)"/><text font-family="Arial,Arial_MSFontService,sans-serif" font-weight="400" font-size="92" transform="matrix(-3.32349e-17 -0.180844 0.180922 -3.32205e-17 1669.67 1043)">P<tspan font-size="92" x="60.826" y="1.11735e-14">(</tspan><tspan font-size="92" x="94.0038" y="1.72682e-14">x</tspan><tspan font-size="92" x="138.241" y="2.53944e-14">)</tspan></text><text font-family="Arial,Arial_MSFontService,sans-serif" font-weight="400" font-size="92" transform="matrix(0.180922 0 0 0.180844 1784.92 1159)">TPM<tspan font-size="69" x="-449.969" y="-110.593">0          20          40          60        80</tspan></text><text font-family="Arial,Arial_MSFontService,sans-serif" font-weight="400" font-size="69" transform="matrix(-3.32349e-17 -0.180844 0.180922 -3.32205e-17 1691.55 1114)">0                      0<tspan font-size="69" x="492.137" y="9.04041e-14">.</tspan><tspan font-size="69" x="514.256" y="9.44673e-14">1                       0</tspan><tspan font-size="69" x="1028.51" y="1.88935e-13">.</tspan><tspan font-size="69" x="1045.1" y="1.91982e-13">2</tspan></text><path d="M328.684 233.921 335.375 233.921 335.375 253.272 328.684 253.272Z" stroke="#FDC659" stroke-width="0.828867" stroke-miterlimit="8" fill="#FDC659" fill-opacity="0.4" transform="matrix(1.00043 0 0 1 1370.67 865.746)"/><path d="M335.917 175.69 342.428 175.69 342.428 253.272 335.917 253.272Z" stroke="#FDC659" stroke-width="0.828867" stroke-miterlimit="8" fill="#FDC659" fill-opacity="0.4" transform="matrix(1.00043 0 0 1 1370.67 865.746)"/><path d="M342.428 98.8312 348.938 98.8312 348.938 253.272 342.428 253.272Z" stroke="#FDC659" stroke-width="0.828867" stroke-miterlimit="8" fill="#FDC659" fill-opacity="0.4" transform="matrix(1.00043 0 0 1 1370.67 865.746)"/><path d="M348.938 47.1098 355.629 47.1098 355.629 253.272 348.938 253.272Z" stroke="#FDC659" stroke-width="0.828867" stroke-miterlimit="8" fill="#FDC659" fill-opacity="0.4" transform="matrix(1.00043 0 0 1 1370.67 865.746)"/><path d="M355.629 47.1098 362.14 47.1098 362.14 253.272 355.629 253.272Z" stroke="#FDC659" stroke-width="0.828867" stroke-miterlimit="8" fill="#FDC659" fill-opacity="0.4" transform="matrix(1.00043 0 0 1 1370.67 865.746)"/><path d="M362.501 88.1614 369.012 88.1614 369.012 253.272 362.501 253.272Z" stroke="#FDC659" stroke-width="0.828867" stroke-miterlimit="8" fill="#FDC659" fill-opacity="0.4" transform="matrix(1.00043 0 0 1 1370.67 865.746)"/><path d="M369.193 142.776 375.884 142.776 375.884 253.272 369.193 253.272Z" stroke="#FDC659" stroke-width="0.828867" stroke-miterlimit="8" fill="#FDC659" fill-opacity="0.4" transform="matrix(1.00043 0 0 1 1370.67 865.746)"/><path d="M375.884 190.157 382.394 190.157 382.394 253.272 375.884 253.272Z" stroke="#FDC659" stroke-width="0.828867" stroke-miterlimit="8" fill="#FDC659" fill-opacity="0.4" transform="matrix(1.00043 0 0 1 1370.67 865.746)"/><path d="M382.575 221.805 389.266 221.805 389.266 253.272 382.575 253.272Z" stroke="#FDC659" stroke-width="0.828867" stroke-miterlimit="8" fill="#FDC659" fill-opacity="0.4" transform="matrix(1.00043 0 0 1 1370.67 865.746)"/><path d="M389.809 239.166 396.5 239.166 396.5 253.272 389.809 253.272Z" stroke="#FDC659" stroke-width="0.828867" stroke-miterlimit="8" fill="#FDC659" fill-opacity="0.4" transform="matrix(1.00043 0 0 1 1370.67 865.746)"/><path d="M396.5 247.123 403.191 247.123 403.191 253.272 396.5 253.272Z" stroke="#FDC659" stroke-width="0.828867" stroke-miterlimit="8" fill="#FDC659" fill-opacity="0.4" transform="matrix(1.00043 0 0 1 1370.67 865.746)"/><path d="M403.734 250.197 410.244 250.197 410.244 253.272 403.734 253.272Z" stroke="#FDC659" stroke-width="0.828867" stroke-miterlimit="8" fill="#FDC659" fill-opacity="0.4" transform="matrix(1.00043 0 0 1 1370.67 865.746)"/><path d="M409.702 47.1098 416.212 47.1098 416.212 253.272 409.702 253.272Z" stroke="#F58A53" stroke-width="0.828867" stroke-miterlimit="8" fill="#F58A53" fill-opacity="0.4" transform="matrix(1.00043 0 0 1 1370.67 865.746)"/><path d="M416.212 88.1614 422.903 88.1614 422.903 253.272 416.212 253.272Z" stroke="#F58A53" stroke-width="0.828867" stroke-miterlimit="8" fill="#F58A53" fill-opacity="0.4" transform="matrix(1.00043 0 0 1 1370.67 865.746)"/><path d="M422.903 142.776 429.595 142.776 429.595 253.272 422.903 253.272Z" stroke="#F58A53" stroke-width="0.828867" stroke-miterlimit="8" fill="#F58A53" fill-opacity="0.4" transform="matrix(1.00043 0 0 1 1370.67 865.746)"/><path d="M429.595 190.157 436.286 190.157 436.286 253.272 429.595 253.272Z" stroke="#F58A53" stroke-width="0.828867" stroke-miterlimit="8" fill="#F58A53" fill-opacity="0.4" transform="matrix(1.00043 0 0 1 1370.67 865.746)"/><path d="M435.382 221.624 441.892 221.624 441.892 253.272 435.382 253.272Z" stroke="#F58A53" stroke-width="0.828867" stroke-miterlimit="8" fill="#F58A53" fill-opacity="0.4" transform="matrix(1.00043 0 0 1 1370.67 865.746)"/><path d="M441.53 239.166 448.041 239.166 448.041 253.272 441.53 253.272Z" stroke="#F58A53" stroke-width="0.828867" stroke-miterlimit="8" fill="#F58A53" fill-opacity="0.4" transform="matrix(1.00043 0 0 1 1370.67 865.746)"/><path d="M448.221 247.123 454.732 247.123 454.732 253.272 448.221 253.272Z" stroke="#F58A53" stroke-width="0.828867" stroke-miterlimit="8" fill="#F58A53" fill-opacity="0.4" transform="matrix(1.00043 0 0 1 1370.67 865.746)"/><path d="M455.274 250.197 461.966 250.197 461.966 253.272 455.274 253.272Z" stroke="#F58A53" stroke-width="0.828867" stroke-miterlimit="8" fill="#F58A53" fill-opacity="0.4" transform="matrix(1.00043 0 0 1 1370.67 865.746)"/><path d="M462.327 250.197 469.019 250.197 469.019 253.272 462.327 253.272Z" stroke="#F58A53" stroke-width="0.828867" stroke-miterlimit="8" fill="#F58A53" fill-opacity="0.4" transform="matrix(1.00043 0 0 1 1370.67 865.746)"/><path d="M326.875 54.3436 326.875 54.3436 326.875 253.99 536.473 253.99 536.473 253.99 326.875 253.99Z" stroke="#000000" stroke-width="3.7299" stroke-miterlimit="8" fill="none" fill-rule="evenodd" transform="matrix(1.00043 0 0 1 1370.67 865.746)"/><text font-family="Arial,Arial_MSFontService,sans-serif" font-weight="400" font-size="83" transform="matrix(0.180922 0 0 0.180844 1850.32 937)">Novel<tspan font-size="83" x="0" y="99.5334">Known</tspan></text><path d="M464.497 59.7689 476.252 59.7689 476.252 71.5238 464.497 71.5238Z" stroke="#FDC659" stroke-width="0.828867" stroke-miterlimit="8" fill="#FDC659" fill-opacity="0.4" transform="matrix(1.00043 0 0 1 1370.67 865.746)"/><path d="M464.497 78.5766 476.252 78.5766 476.252 90.3315 464.497 90.3315Z" stroke="#F58A53" stroke-width="0.828867" stroke-miterlimit="8" fill="#F58A53" fill-opacity="0.4" transform="matrix(1.00043 0 0 1 1370.67 865.746)"/><text font-family="Arial,Arial_MSFontService,sans-serif" font-weight="400" font-size="92" transform="matrix(-3.32349e-17 -0.180844 0.180922 -3.32205e-17 1941.22 1042)">P<tspan font-size="92" x="60.826" y="1.11735e-14">(</tspan><tspan font-size="92" x="88.4741" y="1.62524e-14">x</tspan><tspan font-size="92" x="132.711" y="2.43786e-14">)</tspan></text><text font-family="Arial,Arial_MSFontService,sans-serif" font-weight="400" font-size="92" transform="matrix(0.180922 0 0 0.180844 2056.47 1159)">TPM<tspan font-size="69" x="-449.969" y="-110.593">0         50          100        150       200</tspan></text><text font-family="Arial,Arial_MSFontService,sans-serif" font-weight="400" font-size="69" transform="matrix(-3.32349e-17 -0.180844 0.180922 -3.32205e-17 1963.09 1114)">0                      0<tspan font-size="69" x="492.137" y="9.04041e-14">.</tspan><tspan font-size="69" x="514.256" y="9.44673e-14">3                       0</tspan><tspan font-size="69" x="1028.51" y="1.88935e-13">.</tspan><tspan font-size="69" x="1045.1" y="1.91982e-13">6</tspan></text><path d="M600.673 57.9604 607.364 57.9604 607.364 252.548 600.673 252.548Z" stroke="#0C6962" stroke-width="0.828867" stroke-miterlimit="8" fill="#0C6962" fill-opacity="0.4" transform="matrix(1.00043 0 0 1 1370.67 865.746)"/><path d="M607.364 214.752 614.055 214.752 614.055 252.548 607.364 252.548Z" stroke="#0C6962" stroke-width="0.828867" stroke-miterlimit="8" fill="#0C6962" fill-opacity="0.4" transform="matrix(1.00043 0 0 1 1370.67 865.746)"/><path d="M614.055 232.113 620.566 232.113 620.566 252.548 614.055 252.548Z" stroke="#0C6962" stroke-width="0.828867" stroke-miterlimit="8" fill="#0C6962" fill-opacity="0.4" transform="matrix(1.00043 0 0 1 1370.67 865.746)"/><path d="M621.47 245.495 627.98 245.495 627.98 252.548 621.47 252.548Z" stroke="#0C6962" stroke-width="0.828867" stroke-miterlimit="8" fill="#0C6962" fill-opacity="0.4" transform="matrix(1.00043 0 0 1 1370.67 865.746)"/><path d="M628.884 249.293 635.576 249.293 635.576 252.548 628.884 252.548Z" stroke="#0C6962" stroke-width="0.828867" stroke-miterlimit="8" fill="#0C6962" fill-opacity="0.4" transform="matrix(1.00043 0 0 1 1370.67 865.746)"/><path d="M636.299 249.474 642.99 249.474 642.99 252.368 636.299 252.368Z" stroke="#0C6962" stroke-width="0.828867" stroke-miterlimit="8" fill="#0C6962" fill-opacity="0.4" transform="matrix(1.00043 0 0 1 1370.67 865.746)"/><path d="M643.894 249.474 650.405 249.474 650.405 252.368 643.894 252.368Z" stroke="#0C6962" stroke-width="0.828867" stroke-miterlimit="8" fill="#0C6962" fill-opacity="0.4" transform="matrix(1.00043 0 0 1 1370.67 865.746)"/><path d="M651.309 249.655 658 249.655 658 252.729 651.309 252.729Z" stroke="#0C6962" stroke-width="0.828867" stroke-miterlimit="8" fill="#0C6962" fill-opacity="0.4" transform="matrix(1.00043 0 0 1 1370.67 865.746)"/><path d="M658.724 250.197 665.415 250.197 665.415 253.091 658.724 253.091Z" stroke="#0C6962" stroke-width="0.828867" stroke-miterlimit="8" fill="#0C6962" fill-opacity="0.4" transform="matrix(1.00043 0 0 1 1370.67 865.746)"/><path d="M666.319 250.74 672.829 250.74 672.829 253.633 666.319 253.633Z" stroke="#0C6962" stroke-width="0.828867" stroke-miterlimit="8" fill="#0C6962" fill-opacity="0.4" transform="matrix(1.00043 0 0 1 1370.67 865.746)"/><path d="M673.734 250.74 680.425 250.74 680.425 253.633 673.734 253.633Z" stroke="#0C6962" stroke-width="0.828867" stroke-miterlimit="8" fill="#0C6962" fill-opacity="0.4" transform="matrix(1.00043 0 0 1 1370.67 865.746)"/><path d="M681.51 250.74 688.201 250.74 688.201 253.633 681.51 253.633Z" stroke="#0C6962" stroke-width="0.828867" stroke-miterlimit="8" fill="#0C6962" fill-opacity="0.4" transform="matrix(1.00043 0 0 1 1370.67 865.746)"/><path d="M688.925 250.74 695.616 250.74 695.616 253.633 688.925 253.633Z" stroke="#0C6962" stroke-width="0.828867" stroke-miterlimit="8" fill="#0C6962" fill-opacity="0.4" transform="matrix(1.00043 0 0 1 1370.67 865.746)"/><path d="M696.701 251.825 703.392 251.825 703.392 254.718 696.701 254.718Z" stroke="#0C6962" stroke-width="0.828867" stroke-miterlimit="8" fill="#0C6962" fill-opacity="0.4" transform="matrix(1.00043 0 0 1 1370.67 865.746)"/><path d="M704.296 251.825 710.807 251.825 710.807 254.718 704.296 254.718Z" stroke="#0C6962" stroke-width="0.828867" stroke-miterlimit="8" fill="#0C6962" fill-opacity="0.4" transform="matrix(1.00043 0 0 1 1370.67 865.746)"/><path d="M712.073 251.825 718.583 251.825 718.583 254.899 712.073 254.899Z" stroke="#0C6962" stroke-width="0.828867" stroke-miterlimit="8" fill="#0C6962" fill-opacity="0.4" transform="matrix(1.00043 0 0 1 1370.67 865.746)"/><path d="M719.487 251.825 726.178 251.825 726.178 254.899 719.487 254.899Z" stroke="#0C6962" stroke-width="0.828867" stroke-miterlimit="8" fill="#0C6962" fill-opacity="0.4" transform="matrix(1.00043 0 0 1 1370.67 865.746)"/><path d="M598.322 54.1627 598.322 54.1627 598.322 253.809 807.92 253.809 807.92 253.809 598.322 253.809Z" stroke="#000000" stroke-width="3.7299" stroke-miterlimit="8" fill="none" fill-rule="evenodd" transform="matrix(1.00043 0 0 1 1370.67 865.746)"/><path d="M726.63 251.735 797.239 251.735" stroke="#0C6962" stroke-width="0.414434" stroke-miterlimit="8" fill="none" fill-rule="evenodd" transform="matrix(1.00043 0 0 1 1370.67 865.746)"/><text font-family="Arial,Arial_MSFontService,sans-serif" font-weight="400" font-size="83" transform="matrix(0.180922 0 0 0.180844 2023.32 938)">Raw <tspan font-size="83" x="187.918" y="0">counts</tspan><tspan font-size="83" x="453.75" y="0">mapped</tspan><tspan font-size="83" x="98.5422" y="94.0038">with</tspan><tspan font-weight="700" font-size="83" x="268.125" y="94.0038">minimap</tspan><tspan font-weight="700" font-size="83" x="610.125" y="94.0038">2</tspan></text></g></g></g></g><g clip-path="url(#clip5)"><g clip-path="url(#clip6)"><g clip-path="url(#clip7)"><g clip-path="url(#clip8)"><path d="M1498.62 883.673 1581.26 824.529 1663.91 883.673 1632.34 979.368 1530.19 979.368Z" stroke="#000000" stroke-width="7.56322" stroke-linejoin="round" stroke-miterlimit="10" fill="none" fill-rule="evenodd" transform="matrix(1 0 0 1.00198 139.062 1353.28)"/><path d="M0 0 2.30063 84.6347" stroke="#000000" stroke-width="3.78161" stroke-linejoin="round" stroke-miterlimit="10" fill="none" fill-rule="evenodd" transform="matrix(-1 0 0 1.00198 1720.29 2179.45)"/><path d="M1498.62 883.659 1578.99 909.19" stroke="#000000" stroke-width="3.78161" stroke-linejoin="round" stroke-miterlimit="10" fill="none" fill-rule="evenodd" transform="matrix(1 0 0 1.00198 139.062 1353.28)"/><path d="M0 0 84.089 25.5316" stroke="#000000" stroke-width="3.78161" stroke-linejoin="round" stroke-miterlimit="10" fill="none" fill-rule="evenodd" transform="matrix(-1 0 0 1.00198 1802.9 2238.69)"/><path d="M1632.26 979.335 1579.75 909.237" stroke="#000000" stroke-width="3.78161" stroke-linejoin="round" stroke-miterlimit="10" fill="none" fill-rule="evenodd" transform="matrix(1 0 0 1.00198 139.062 1353.28)"/><path d="M0 0 48.7932 70.0987" stroke="#000000" stroke-width="3.78161" stroke-linejoin="round" stroke-miterlimit="10" fill="none" fill-rule="evenodd" transform="matrix(-1 0 0 1.00198 1718.1 2264.32)"/><text font-family="Open Sans,Open Sans_MSFontService,sans-serif" font-weight="400" font-size="64" transform="matrix(0.114901 -0.25037 0.249874 0.115129 1613.48 2269)">Precision</text><text font-family="Open Sans,Open Sans_MSFontService,sans-serif" font-weight="400" font-size="64" transform="matrix(0.275026 0 0 0.275572 1680.32 2167)">Sensitivity</text><text font-family="Open Sans,Open Sans_MSFontService,sans-serif" font-weight="400" font-size="64" transform="matrix(0.110623 0.252297 -0.251798 0.110842 1801.76 2208)">F<tspan font-size="64" x="31.9547" y="-0.559901">-</tspan><tspan font-size="64" x="51.9032" y="-0.857164">score</tspan></text><text font-family="Open Sans,Open Sans_MSFontService,sans-serif" font-weight="400" font-size="64" transform="matrix(0.275026 0 0 0.275572 1647.23 2357)">PDR<tspan font-size="64" x="390.905" y="7.25764">FDR</tspan></text></g></g></g></g><g clip-path="url(#clip9)"><g clip-path="url(#clip10)"><g clip-path="url(#clip11)"><g clip-path="url(#clip12)"><path d="M1495.03 881.558 1577.48 822.556 1659.93 881.558 1628.44 977.025 1526.52 977.025Z" stroke="#000000" stroke-width="7.54512" stroke-linejoin="round" stroke-miterlimit="10" fill="none" fill-rule="evenodd" transform="matrix(1.0024 0 0 1 398.062 1358.74)"/><path d="M0 0 2.29512 84.4321" stroke="#000000" stroke-width="3.77256" stroke-linejoin="round" stroke-miterlimit="10" fill="none" fill-rule="evenodd" transform="matrix(-1.0024 0 0 1 1979.29 2181.3)"/><path d="M1495.03 881.545 1575.21 907.014" stroke="#000000" stroke-width="3.77256" stroke-linejoin="round" stroke-miterlimit="10" fill="none" fill-rule="evenodd" transform="matrix(1.0024 0 0 1 398.062 1358.74)"/><path d="M0 0 83.8878 25.4705" stroke="#000000" stroke-width="3.77256" stroke-linejoin="round" stroke-miterlimit="10" fill="none" fill-rule="evenodd" transform="matrix(-1.0024 0 0 1 2061.9 2240.29)"/><path d="M1628.36 976.992 1575.97 907.061" stroke="#000000" stroke-width="3.77256" stroke-linejoin="round" stroke-miterlimit="10" fill="none" fill-rule="evenodd" transform="matrix(1.0024 0 0 1 398.062 1358.74)"/><path d="M0 0 48.6765 69.9309" stroke="#000000" stroke-width="3.77256" stroke-linejoin="round" stroke-miterlimit="10" fill="none" fill-rule="evenodd" transform="matrix(-1.0024 0 0 1 1977.1 2265.8)"/><text font-family="Open Sans,Open Sans_MSFontService,sans-serif" font-weight="400" font-size="64" transform="matrix(0.114901 -0.249276 0.249874 0.114626 1872.48 2271)">Precision</text><text font-family="Open Sans,Open Sans_MSFontService,sans-serif" font-weight="400" font-size="64" transform="matrix(0.275026 0 0 0.274368 1939.32 2169)">Sensitivity</text><text font-family="Open Sans,Open Sans_MSFontService,sans-serif" font-weight="400" font-size="64" transform="matrix(0.110623 0.251195 -0.251798 0.110358 2060.76 2210)">F<tspan font-size="64" x="32.0714" y="-0.509091">-</tspan><tspan font-size="64" x="52.0926" y="-0.773939">score</tspan></text><text font-family="Open Sans,Open Sans_MSFontService,sans-serif" font-weight="400" font-size="64" transform="matrix(0.275026 0 0 0.274368 1906.23 2358)">PDR<tspan font-size="64" x="390.905" y="7.28948">FDR</tspan></text></g></g></g></g><path d="M1652.5 2243.5C1652.5 2240.74 1654.74 2238.5 1657.5 2238.5 1660.26 2238.5 1662.5 2240.74 1662.5 2243.5 1662.5 2246.26 1660.26 2248.5 1657.5 2248.5 1654.74 2248.5 1652.5 2246.26 1652.5 2243.5Z" stroke="#3A5A81" stroke-width="4.58333" stroke-miterlimit="8" fill="#3A5A81" fill-rule="evenodd"/><path d="M0 0 53.6423 30.7473" stroke="#3A5A81" stroke-width="4.58333" stroke-miterlimit="8" fill="none" fill-rule="evenodd" transform="matrix(1 0 0 -1 1661.5 2240.25)"/><path d="M1677.5 2315C1677.5 2311.96 1679.74 2309.5 1682.5 2309.5 1685.26 2309.5 1687.5 2311.96 1687.5 2315 1687.5 2318.04 1685.26 2320.5 1682.5 2320.5 1679.74 2320.5 1677.5 2318.04 1677.5 2315Z" stroke="#3A5A81" stroke-width="4.58333" stroke-miterlimit="8" fill="#3A5A81" fill-rule="evenodd"/><path d="M1723.5 2274C1723.5 2270.96 1725.74 2268.5 1728.5 2268.5 1731.26 2268.5 1733.5 2270.96 1733.5 2274 1733.5 2277.04 1731.26 2279.5 1728.5 2279.5 1725.74 2279.5 1723.5 2277.04 1723.5 2274Z" stroke="#3A5A81" stroke-width="4.58333" stroke-miterlimit="8" fill="#3A5A81" fill-rule="evenodd"/><path d="M1772.5 2245.5C1772.5 2242.74 1774.96 2240.5 1778 2240.5 1781.04 2240.5 1783.5 2242.74 1783.5 2245.5 1783.5 2248.26 1781.04 2250.5 1778 2250.5 1774.96 2250.5 1772.5 2248.26 1772.5 2245.5Z" stroke="#3A5A81" stroke-width="4.58333" stroke-miterlimit="8" fill="#3A5A81" fill-rule="evenodd"/><path d="M1714.5 2209C1714.5 2205.96 1716.96 2203.5 1720 2203.5 1723.04 2203.5 1725.5 2205.96 1725.5 2209 1725.5 2212.04 1723.04 2214.5 1720 2214.5 1716.96 2214.5 1714.5 2212.04 1714.5 2209Z" stroke="#3A5A81" stroke-width="4.58333" stroke-miterlimit="8" fill="#3A5A81" fill-rule="evenodd"/><path d="M1657.5 2248.5 1679.01 2310.51" stroke="#3A5A81" stroke-width="4.58333" stroke-miterlimit="8" fill="none" fill-rule="evenodd"/><path d="M0 0 36.8558 37.0124" stroke="#3A5A81" stroke-width="4.58333" stroke-miterlimit="8" fill="none" fill-rule="evenodd" transform="matrix(1 0 0 -1 1687.5 2314.51)"/><path d="M0 0 42.2024 21.0664" stroke="#3A5A81" stroke-width="4.58333" stroke-miterlimit="8" fill="none" fill-rule="evenodd" transform="matrix(1 0 0 -1 1732.5 2270.57)"/><path d="M1725.5 2209.5 1774.63 2241.98" stroke="#3A5A81" stroke-width="4.58333" stroke-miterlimit="8" fill="none" fill-rule="evenodd"/><path d="M1925.5 2252C1925.5 2248.96 1927.96 2246.5 1931 2246.5 1934.04 2246.5 1936.5 2248.96 1936.5 2252 1936.5 2255.04 1934.04 2257.5 1931 2257.5 1927.96 2257.5 1925.5 2255.04 1925.5 2252Z" stroke="#D31336" stroke-width="4.58333" stroke-miterlimit="8" fill="#D31336" fill-rule="evenodd"/><path d="M0 0 37.3747 0.42874" stroke="#D31336" stroke-width="4.58333" stroke-miterlimit="8" fill="none" fill-rule="evenodd" transform="matrix(1 0 0 -1 1934.5 2247.93)"/><path d="M1941.5 2309.5C1941.5 2306.74 1943.96 2304.5 1947 2304.5 1950.04 2304.5 1952.5 2306.74 1952.5 2309.5 1952.5 2312.26 1950.04 2314.5 1947 2314.5 1943.96 2314.5 1941.5 2312.26 1941.5 2309.5Z" stroke="#D31336" stroke-width="4.58333" stroke-miterlimit="8" fill="#D31336" fill-rule="evenodd"/><path d="M1986.5 2285C1986.5 2281.96 1988.96 2279.5 1992 2279.5 1995.04 2279.5 1997.5 2281.96 1997.5 2285 1997.5 2288.04 1995.04 2290.5 1992 2290.5 1988.96 2290.5 1986.5 2288.04 1986.5 2285Z" stroke="#D31336" stroke-width="4.58333" stroke-miterlimit="8" fill="#D31336" fill-rule="evenodd"/><path d="M2001.5 2258.5C2001.5 2255.74 2003.96 2253.5 2007 2253.5 2010.04 2253.5 2012.5 2255.74 2012.5 2258.5 2012.5 2261.26 2010.04 2263.5 2007 2263.5 2003.96 2263.5 2001.5 2261.26 2001.5 2258.5Z" stroke="#D31336" stroke-width="4.58333" stroke-miterlimit="8" fill="#D31336" fill-rule="evenodd"/><path d="M1972.5 2248C1972.5 2244.96 1974.74 2242.5 1977.5 2242.5 1980.26 2242.5 1982.5 2244.96 1982.5 2248 1982.5 2251.04 1980.26 2253.5 1977.5 2253.5 1974.74 2253.5 1972.5 2251.04 1972.5 2248Z" stroke="#D31336" stroke-width="4.58333" stroke-miterlimit="8" fill="#D31336" fill-rule="evenodd"/><path d="M1931.5 2257.5 1943.81 2305.99" stroke="#D31336" stroke-width="4.58333" stroke-miterlimit="8" fill="none" fill-rule="evenodd"/><path d="M0 0 35.7706 20.6221" stroke="#D31336" stroke-width="4.58333" stroke-miterlimit="8" fill="none" fill-rule="evenodd" transform="matrix(1 0 0 -1 1952.5 2309.12)"/><path d="M0 0 7.7018 19.2399" stroke="#D31336" stroke-width="4.58333" stroke-miterlimit="8" fill="none" fill-rule="evenodd" transform="matrix(1 0 0 -1 1995.5 2281.74)"/><path d="M1982.5 2247.5 2003.11 2254.36" stroke="#D31336" stroke-width="4.58333" stroke-miterlimit="8" fill="none" fill-rule="evenodd"/><path d="M824.835 1499.5 711.769 1499.22 711.794 1488.91 824.86 1489.19ZM716.899 1509.55 686 1494 716.976 1478.61Z" fill="#15918A"/><path d="M1109.93 824 1109.93 989.005 385 989.005 390.156 983.849 390.156 1117.92 379.844 1117.92 379.844 978.693 1104.77 978.693 1099.62 983.849 1099.62 824ZM400.469 1112.76 385 1143.7 369.531 1112.76Z" fill="#15918A"/><path d="M1109.16 823.994 1109.48 1117.91 1099.17 1117.92 1098.84 824.006ZM1119.79 1112.74 1104.36 1143.7 1088.85 1112.78Z" fill="#F8C141"/><path d="M5.15625-1.17176e-05 5.15655 133.027-5.15595 133.027-5.15625 1.17176e-05ZM15.469 127.871 0.000360892 158.809-15.4685 127.871Z" fill="#F8C141" transform="matrix(-1 0 0 1 1104 1620)"/><rect x="95.9999" y="1756" width="560" height="252" stroke="#7B7B7B" stroke-width="10.3125" stroke-miterlimit="8" fill="#E7E6E6"/><text font-family="Calibri,Calibri_MSFontService,sans-serif" font-weight="400" font-size="64" transform="matrix(1 0 0 1 188.915 1827)">Transcriptome <tspan font-size="64" x="-3.48334" y="77">reconstruction </tspan><tspan font-size="64" x="81.9729" y="154">pipeline</tspan></text><path d="M1606.57 788.052 1490.13 788.052 1490.13 698 1495.28 703.156 1409.78 703.156 1409.78 692.844 1500.44 692.844 1500.44 782.896 1495.28 777.74 1606.57 777.74ZM1414.94 713.469 1384 698 1414.94 682.531Z" fill="#FC8D59"/><text font-family="Calibri,Calibri_MSFontService,sans-serif" font-weight="400" font-size="37" transform="matrix(1 0 0 1 585.721 205)">Annotation<tspan font-size="37" x="44.9625" y="44">(GTF)</tspan><tspan font-size="37" x="-34.4916" y="404">Annotation</tspan><tspan font-size="37" x="10.4938" y="448">(GTF)</tspan></text><path d="M1809.65 323 1809.65 703.762 1409.78 703.762 1409.78 693.449 1804.5 693.449 1799.34 698.606 1799.34 323ZM1414.94 714.074 1384 698.606 1414.94 683.137Z" fill="#F8C141"/><rect x="1404" y="321" width="584" height="100" fill="#FFFFFF"/><text font-family="Arial,Arial_MSFontService,sans-serif" font-weight="400" font-size="55" transform="matrix(1 0 0 1 1562.09 390)">*_<tspan font-size="55" x="51.5625" y="0">index.tsv</tspan></text><g clip-path="url(#clip13)"><g clip-path="url(#clip14)"><g clip-path="url(#clip15)"><path d="M1520.57 394.521 1520.57 348.479 1537.5 348.479 1537.5 362.698 1554.43 362.698 1554.43 394.521 1520.57 394.521ZM1541.56 350.172 1550.03 358.635 1541.56 358.635 1541.56 350.172ZM1541.56 344.417 1516.51 344.417 1516.51 398.583 1558.49 398.583 1558.49 359.312 1541.56 344.417Z"/><path d="M1524.64 369.469 1550.36 369.469 1550.36 372.177 1524.64 372.177Z"/><path d="M1524.64 364.052 1533.44 364.052 1533.44 366.76 1524.64 366.76Z"/><path d="M1524.64 374.885 1550.36 374.885 1550.36 377.594 1524.64 377.594Z"/><path d="M1524.64 380.302 1550.36 380.302 1550.36 383.01 1524.64 383.01Z"/><path d="M1524.64 385.719 1550.36 385.719 1550.36 388.427 1524.64 388.427Z"/></g></g></g><rect x="1513" y="208" width="584" height="115" stroke="#F8C141" stroke-width="10.3125" stroke-miterlimit="8" fill="none"/><text font-family="Calibri,Calibri_MSFontService,sans-serif" font-weight="400" font-size="64" transform="matrix(1 0 0 1 1549.75 287)">Transcript<tspan font-size="64" x="272.296" y="0">index</tspan><tspan font-size="64" x="428.313" y="0">file</tspan></text><path d="M1384 260.844 1486.63 260.844 1486.63 271.157 1384 271.156ZM1481.47 250.532 1512.41 266 1481.47 281.469Z" fill="#F8C141"/><rect x="112" y="208" width="404" height="115" stroke="#F28C4F" stroke-width="10.3125" stroke-miterlimit="8" fill="none"/><text font-family="Calibri,Calibri_MSFontService,sans-serif" font-weight="400" font-size="64" transform="matrix(1 0 0 1 183.094 287)">Reference</text><rect x="825" y="139" width="559" height="253" stroke="#B5B4B4" stroke-width="10.3125" stroke-miterlimit="8" fill="#E7E6E6"/><path d="M516 260.844 798.778 260.844 798.778 271.157 516 271.156ZM793.621 250.532 824.559 266 793.621 281.469Z" fill="#F28C4F"/><rect x="883" y="269" width="443" height="103" stroke="#7B7B7B" stroke-width="10.3125" stroke-miterlimit="8" fill="#E7E6E6"/><text font-family="Calibri,Calibri_MSFontService,sans-serif" font-weight="400" font-size="64" transform="matrix(1 0 0 1 937.566 342)">classification</text><rect x="584.5" y="303.5" width="44" height="15.9998" stroke="#000000" stroke-width="4.58333" stroke-miterlimit="8"/><rect x="654.5" y="303.5" width="33" height="15.9998" stroke="#000000" stroke-width="4.58333" stroke-miterlimit="8"/><rect x="713.5" y="303.5" width="24.9998" height="15.9998" stroke="#000000" stroke-width="4.58333" stroke-miterlimit="8"/><path d="M0 0 12.3194 19.1399" stroke="#000000" stroke-width="2.29167" stroke-miterlimit="8" fill="none" fill-rule="evenodd" transform="matrix(1 0 0 -1 628 303.14)"/><path d="M653.372 303.14 640 284" stroke="#000000" stroke-width="2.29167" stroke-miterlimit="8" fill="none" fill-rule="evenodd"/><path d="M0 0 12.3194 19.1399" stroke="#000000" stroke-width="2.29167" stroke-miterlimit="8" fill="none" fill-rule="evenodd" transform="matrix(1 0 0 -1 687 303.14)"/><path d="M713.372 303.14 700 284" stroke="#000000" stroke-width="2.29167" stroke-miterlimit="8" fill="none" fill-rule="evenodd"/><rect x="584.5" y="412.5" width="44" height="16.0002" stroke="#000000" stroke-width="4.58333" stroke-miterlimit="8"/><rect x="713.5" y="412.5" width="24.9998" height="16.0002" stroke="#000000" stroke-width="4.58333" stroke-miterlimit="8"/><path d="M0 0 44.4948 15.3751" stroke="#000000" stroke-width="2.29167" stroke-miterlimit="8" fill="none" fill-rule="evenodd" transform="matrix(1 0 0 -1 628 412.375)"/><path d="M712.834 412.361 672 397" stroke="#000000" stroke-width="2.29167" stroke-miterlimit="8" fill="none" fill-rule="evenodd"/><rect x="583.5" y="357.5" width="43.0003" height="16.0002" stroke="#000000" stroke-width="4.58333" stroke-miterlimit="8"/><rect x="652.5" y="357.5" width="34.0001" height="16.0002" stroke="#000000" stroke-width="4.58333" stroke-miterlimit="8"/><path d="M0 0 12.3194 19.1399" stroke="#000000" stroke-width="2.29167" stroke-miterlimit="8" fill="none" fill-rule="evenodd" transform="matrix(1 0 0 -1 626 357.14)"/><path d="M652.372 357.14 639 338" stroke="#000000" stroke-width="2.29167" stroke-miterlimit="8" fill="none" fill-rule="evenodd"/><rect x="1956.5" y="470.5" width="44" height="15.9998" stroke="#EE6A50" stroke-width="4.58333" stroke-miterlimit="8" fill="#EE6A50"/><rect x="2026.5" y="470.5" width="33.0001" height="15.9998" stroke="#EE6A50" stroke-width="4.58333" stroke-miterlimit="8" fill="#EE6A50"/><rect x="2085.5" y="470.5" width="25" height="15.9998" stroke="#EE6A50" stroke-width="4.58333" stroke-miterlimit="8" fill="#EE6A50"/><path d="M0 0 12.3194 19.1399" stroke="#EE6A50" stroke-width="2.29167" stroke-miterlimit="8" fill="#EE6A50" fill-rule="evenodd" transform="matrix(1 0 0 -1 2000 470.14)"/><path d="M2025.37 470.14 2012 451" stroke="#EE6A50" stroke-width="2.29167" stroke-miterlimit="8" fill="#EE6A50" fill-rule="evenodd"/><path d="M0 0 12.3194 19.1399" stroke="#EE6A50" stroke-width="2.29167" stroke-miterlimit="8" fill="#EE6A50" fill-rule="evenodd" transform="matrix(1 0 0 -1 2060 470.14)"/><path d="M2085.37 470.14 2072 451" stroke="#EE6A50" stroke-width="2.29167" stroke-miterlimit="8" fill="#EE6A50" fill-rule="evenodd"/><rect x="1956.5" y="579.5" width="44" height="15.9998" stroke="#78C679" stroke-width="4.58333" stroke-miterlimit="8" fill="#78C679"/><rect x="2085.5" y="579.5" width="25" height="15.9998" stroke="#78C679" stroke-width="4.58333" stroke-miterlimit="8" fill="#78C679"/><path d="M0 0 44.4948 15.3751" stroke="#78C679" stroke-width="2.29167" stroke-miterlimit="8" fill="#78C679" fill-rule="evenodd" transform="matrix(1 0 0 -1 2000 579.375)"/><path d="M2084.83 579.362 2044 564" stroke="#78C679" stroke-width="2.29167" stroke-miterlimit="8" fill="#78C679" fill-rule="evenodd"/><rect x="1955.5" y="524.5" width="43" height="15.9998" stroke="#FC8D59" stroke-width="4.58333" stroke-miterlimit="8" fill="#FC8D59"/><rect x="2024.5" y="524.5" width="34.0001" height="15.9998" stroke="#FC8D59" stroke-width="4.58333" stroke-miterlimit="8" fill="#FC8D59"/><path d="M0 0 12.3194 19.1399" stroke="#FC8D59" stroke-width="2.29167" stroke-miterlimit="8" fill="#FC8D59" fill-rule="evenodd" transform="matrix(1 0 0 -1 1998 524.14)"/><path d="M2024.37 524.14 2011 505" stroke="#FC8D59" stroke-width="2.29167" stroke-miterlimit="8" fill="#FC8D59" fill-rule="evenodd"/><text font-family="Calibri,Calibri_MSFontService,sans-serif" font-weight="400" font-size="37" transform="matrix(1 0 0 1 1904.21 388)">Potential SQANTI3 <tspan font-size="37" x="-16.0417" y="44">structural categories</tspan></text><path d="M1907 670C1887.39 670 1871.5 661.896 1871.5 651.899L1871.5 397.303C1871.5 387.306 1855.61 379.202 1836 379.202 1855.61 379.202 1871.5 371.098 1871.5 361.101L1871.5 361.101C1871.5 351.104 1887.39 343 1907 343" stroke="#34928B" stroke-width="10.3125" stroke-miterlimit="8" fill="none" fill-rule="evenodd"/><rect x="825" y="572" width="559" height="252" stroke="#B5B4B4" stroke-width="10.3125" stroke-miterlimit="8" fill="#E7E6E6"/><rect x="883" y="702" width="443" height="103" stroke="#7B7B7B" stroke-width="10.3125" stroke-miterlimit="8" fill="#E7E6E6"/><text font-family="Calibri,Calibri_MSFontService,sans-serif" font-weight="400" font-size="64" transform="matrix(1 0 0 1 1019.22 775)">design</text><rect x="1090.5" y="410.5" width="29.0002" height="30.9999" stroke="#FFFFFF" stroke-width="4.58333" stroke-miterlimit="8" fill="#FFFFFF"/><text fill="#34928B" font-family="Arial,Arial_MSFontService,sans-serif" font-style="italic" font-weight="400" font-size="37" transform="matrix(1 0 0 1 939.239 437)">sqanti<tspan font-size="37" x="98.5417" y="0">-</tspan>sim.py <tspan font-size="37" x="226.875" y="0">classif</tspan></text><rect x="104" y="496" width="404" height="115" stroke="#FC8D59" stroke-width="10.3125" stroke-miterlimit="8" fill="none"/><text font-family="Calibri,Calibri_MSFontService,sans-serif" font-weight="400" font-size="64" transform="matrix(1 0 0 1 175.488 575)">Reference</text><g clip-path="url(#clip16)"><g clip-path="url(#clip17)"><g clip-path="url(#clip18)"><path d="M490.747 677.618C496.411 669.947 494.278 662.134 491.113 655.015 498.899 655.877 506.944 655.682 512.608 648.012L508.571 645.031C507.676 646.242 506.63 647.237 505.548 647.998L485.093 632.894C485.501 631.636 486.144 630.343 487.039 629.132L483.001 626.151C477.337 633.822 479.52 641.568 482.635 648.755 474.9 647.826 466.805 648.087 461.141 655.758 455.427 663.496 457.56 671.309 460.725 678.429 452.989 677.5 444.944 677.694 439.281 685.364L443.318 688.345C444.262 687.067 445.259 686.139 446.34 685.378L466.796 700.482C466.387 701.74 465.794 702.965 464.85 704.244L468.887 707.225C474.551 699.554 472.368 691.808 469.203 684.689 476.939 685.618 485.034 685.356 490.747 677.618ZM465.178 658.739C466.072 657.528 467.119 656.533 468.201 655.772L488.723 670.925C488.315 672.183 487.672 673.476 486.777 674.687 485.883 675.898 484.837 676.893 483.755 677.654L463.232 662.501C463.641 661.243 464.284 659.95 465.178 658.739ZM484.669 638.819 499.943 650.097C496.551 650.608 492.649 650.118 488.496 649.547 486.795 645.796 485.179 642.211 484.669 638.819ZM485.185 654.173C486.953 657.974 488.57 661.558 489.08 664.95L473.738 653.623C477.131 653.112 481.082 653.534 485.185 654.173ZM463.275 683.846C465.093 687.58 466.642 691.115 467.152 694.507L451.945 683.279C455.338 682.768 459.172 683.208 463.275 683.846ZM466.654 679.271C464.818 675.42 463.202 671.836 462.741 668.376L478.217 679.803C474.775 680.381 470.874 679.892 466.654 679.271Z"/></g></g></g><g clip-path="url(#clip19)"><g clip-path="url(#clip20)"><g clip-path="url(#clip21)"><path d="M539.103 682.229C544.272 675.228 542.325 668.097 539.437 661.6 546.542 662.386 553.885 662.209 559.054 655.208L555.369 652.488C554.553 653.593 553.598 654.501 552.611 655.196L533.942 641.411C534.315 640.264 534.902 639.084 535.718 637.978L532.033 635.258C526.864 642.258 528.856 649.328 531.699 655.887 524.639 655.039 517.252 655.277 512.083 662.278 506.868 669.34 508.815 676.471 511.703 682.968 504.643 682.12 497.301 682.298 492.132 689.298L495.817 692.019C496.678 690.852 497.588 690.006 498.575 689.311L517.244 703.095C516.87 704.243 516.329 705.362 515.468 706.529L519.152 709.249C524.321 702.248 522.329 695.179 519.441 688.682 526.501 689.529 533.889 689.291 539.103 682.229ZM515.767 664.999C516.583 663.893 517.539 662.985 518.526 662.291L537.256 676.12C536.883 677.268 536.296 678.448 535.48 679.554 534.664 680.659 533.709 681.567 532.721 682.261L513.991 668.432C514.365 667.284 514.951 666.104 515.767 664.999ZM533.555 646.819 547.495 657.112C544.399 657.578 540.839 657.131 537.048 656.61 535.496 653.186 534.021 649.915 533.555 646.819ZM534.027 660.831C535.64 664.3 537.115 667.572 537.581 670.667L523.58 660.329C526.676 659.863 530.282 660.249 534.027 660.831ZM514.03 687.913C515.69 691.32 517.103 694.547 517.569 697.642L503.69 687.395C506.786 686.929 510.286 687.33 514.03 687.913ZM517.114 683.737C515.439 680.223 513.964 676.951 513.543 673.794L527.667 684.223C524.526 684.75 520.965 684.304 517.114 683.737Z"/></g></g></g><text font-family="Calibri,Calibri_MSFontService,sans-serif" font-weight="400" font-size="37" transform="matrix(1 0 0 1 301.963 661)">Genome <tspan font-size="37" x="6.30206" y="44">(FASTA)</tspan></text><path d="M508 547.844 759.241 547.844 759.241 697.694 754.085 692.538 798.385 692.538 798.385 702.85 748.928 702.85 748.928 553 754.085 558.156 508 558.156ZM793.229 682.225 824.166 697.694 793.229 713.163Z" fill="#FC8D59"/><path d="M0-5.15625 253.042-5.15625 253.042 118.642 247.886 113.485 291.24 113.485 291.24 123.798 242.729 123.798 242.729 0 247.886 5.15625 0 5.15625ZM286.084 103.173 317.022 118.642 286.084 134.11Z" fill="#FC8D59" transform="matrix(1 0 0 -1 507 816.642)"/><text font-family="Calibri,Calibri_MSFontService,sans-serif" font-weight="400" font-size="37" transform="matrix(1 0 0 1 522.102 802)">Transcripts per <tspan font-size="37" x="39.2562" y="44">structural </tspan><tspan font-size="37" x="46.7042" y="88">category</tspan></text><rect x="103" y="760" width="404" height="114" stroke="#FC8D59" stroke-width="10.3125" stroke-miterlimit="8" fill="none"/><text font-family="Calibri,Calibri_MSFontService,sans-serif" font-weight="400" font-size="64" transform="matrix(1 0 0 1 204.802 838)">Novelty</text><rect x="1607" y="726" width="404" height="114" stroke="#FC8D59" stroke-width="10.3125" stroke-miterlimit="8" fill="none"/><text font-family="Calibri,Calibri_MSFontService,sans-serif" font-weight="400" font-size="64" transform="matrix(1 0 0 1 1668.72 805)">Expression<tspan font-size="37" x="-179.048" y="72">equal                     custom                    sample</tspan></text><rect x="825" y="1368" width="559" height="252" stroke="#B5B4B4" stroke-width="10.3125" stroke-miterlimit="8" fill="#E7E6E6"/><rect x="883" y="1497" width="443" height="104" stroke="#7B7B7B" stroke-width="10.3125" stroke-miterlimit="8" fill="#E7E6E6"/><text font-family="Calibri,Calibri_MSFontService,sans-serif" font-weight="400" font-size="64" transform="matrix(1 0 0 1 967.094 1571)">simulation<tspan fill="#34928B" font-style="italic" font-size="37" x="-0.319031" y="798">sqanti</tspan><tspan fill="#34928B" font-style="italic" font-size="37" x="91.3477" y="798">-</tspan><tspan fill="#34928B" font-style="italic" font-size="37" x="102.806" y="798">sim</tspan><tspan fill="#34928B" font-style="italic" font-size="37" x="154.941" y="798">.py </tspan><tspan fill="#34928B" font-style="italic" font-size="37" x="207.65" y="798">eval</tspan></text><rect x="824" y="2074" width="559" height="252" stroke="#B5B4B4" stroke-width="10.3125" stroke-miterlimit="8" fill="#E7E6E6"/><rect x="882" y="2203" width="443" height="104" stroke="#7B7B7B" stroke-width="10.3125" stroke-miterlimit="8" fill="#E7E6E6"/><text font-family="Calibri,Calibri_MSFontService,sans-serif" font-weight="400" font-size="64" transform="matrix(1 0 0 1 966.254 2277)">evaluation</text><rect x="816" y="1144" width="577" height="114" stroke="#F8C141" stroke-width="10.3125" stroke-miterlimit="8" fill="none"/><text font-family="Calibri,Calibri_MSFontService,sans-serif" font-weight="400" font-size="64" transform="matrix(1 0 0 1 849.82 1222)">Transcript<tspan font-size="64" x="272.296" y="0">index</tspan><tspan font-size="64" x="428.312" y="0">file</tspan></text><rect x="82.0002" y="1144" width="605" height="114" stroke="#15918A" stroke-width="10.3125" stroke-miterlimit="8" fill="none"/><text font-family="Calibri,Calibri_MSFontService,sans-serif" font-weight="400" font-size="64" transform="matrix(1 0 0 1 120.227 1222)">Reduced<tspan font-size="64" x="240.648" y="0">annotation</tspan></text><rect x="1090.5" y="846.5" width="29.0002" height="30.9999" stroke="#FFFFFF" stroke-width="4.58333" stroke-miterlimit="8" fill="#FFFFFF"/><text fill="#34928B" font-family="Arial,Arial_MSFontService,sans-serif" font-style="italic" font-weight="400" font-size="37" transform="matrix(1 0 0 1 934.729 869)">sqanti<tspan font-size="37" x="98.5417" y="0">-</tspan>sim.py design</text><path d="M5.15622-0.0167681 5.42967 84.0675-4.88278 84.1011-5.15622 0.0167681ZM15.7253 78.8777 0.357283 109.865-15.212 78.9784Z" fill="#F8C141" transform="matrix(-1 0 0 1 1104.36 1258)"/><path d="M87.1564 1201 87.1564 1653.71 82.0002 1648.56 381.586 1648.56 381.586 1730.25 371.274 1730.25 371.274 1653.71 376.43 1658.87 76.8439 1658.87 76.8439 1201ZM391.899 1725.09 376.43 1756.03 360.961 1725.09Z" fill="#15918A"/><g clip-path="url(#clip22)"><g clip-path="url(#clip23)"><g clip-path="url(#clip24)"><path d="M110.083 139.125 91.0938 95.7164 91.0938 65.3971C91.0882 63.1997 91.9621 61.0915 93.5202 59.5422L97.2336 55.8273C97.8803 55.1803 97.8802 54.1318 97.2332 53.485 96.9227 53.1746 96.5017 53.0002 96.0626 53.0001L62.9376 53.0001C62.0228 53.0002 61.2815 53.7419 61.2816 54.6566 61.2818 55.0957 61.4562 55.5167 61.7666 55.8273L65.4799 59.5422C67.0381 61.0915 67.9119 63.1997 67.9063 65.3971L67.9063 95.7164 48.9174 139.125C47.0879 143.317 49.003 148.198 53.1948 150.028 54.2388 150.483 55.3655 150.719 56.5047 150.719L102.495 150.719C107.069 150.717 110.776 147.009 110.774 142.435 110.774 141.296 110.538 140.169 110.083 139.125ZM67.8219 57.2003 66.9639 56.3407C66.949 56.3258 66.954 56.3126 66.9755 56.3126L92.0247 56.3126C92.0462 56.3126 92.0512 56.3258 92.0362 56.3407L91.1767 57.2003C89.0028 59.3743 87.7815 62.3228 87.7813 65.3971L87.7813 74.5313 71.2188 74.5313 71.2188 65.4054C71.2187 62.3282 69.9968 59.377 67.8219 57.2003ZM106.663 145.157C105.753 146.574 104.179 147.424 102.495 147.406L56.5047 147.406C53.7604 147.406 51.5363 145.181 51.5368 142.437 51.5369 141.753 51.6782 141.077 51.9516 140.45L71.0797 96.7251C71.1716 96.5164 71.219 96.2907 71.2188 96.0626L71.2188 77.8438 87.7813 77.8438 87.7813 96.0626C87.7812 96.2907 87.8285 96.5164 87.9205 96.7251L107.049 140.45C107.736 141.982 107.59 143.758 106.663 145.157Z" transform="matrix(1.16981 0 0 1 745 461)"/><path d="M82.8126 16.5625C85.5568 16.5625 87.7813 14.3379 87.7813 11.5938 87.7813 8.8496 85.5568 6.62501 82.8126 6.62501 80.0683 6.62501 77.8438 8.8496 77.8438 11.5938 77.8438 14.3379 80.0683 16.5625 82.8126 16.5625ZM82.8126 9.93751C83.7273 9.93751 84.4688 10.679 84.4688 11.5938 84.4688 12.5085 83.7273 13.25 82.8126 13.25 81.8978 13.25 81.1563 12.5085 81.1563 11.5938 81.1563 10.679 81.8978 9.93751 82.8126 9.93751Z" transform="matrix(1.16981 0 0 1 745 461)"/><path d="M86.1251 26.5C86.1251 29.2443 88.3496 31.4688 91.0938 31.4688 93.8381 31.4688 96.0626 29.2443 96.0626 26.5 96.0626 23.7558 93.8381 21.5313 91.0938 21.5313 88.3496 21.5313 86.1251 23.7558 86.1251 26.5ZM91.0938 24.8438C92.0086 24.8438 92.7501 25.5853 92.7501 26.5 92.7501 27.4148 92.0086 28.1563 91.0938 28.1563 90.1791 28.1563 89.4376 27.4148 89.4376 26.5 89.4376 25.5853 90.1791 24.8438 91.0938 24.8438Z" transform="matrix(1.16981 0 0 1 745 461)"/><path d="M72.8751 28.1563C75.6193 28.1563 77.8438 25.9318 77.8438 23.1875 77.8438 20.4433 75.6193 18.2188 72.8751 18.2188 70.1308 18.2188 67.9063 20.4433 67.9063 23.1875 67.9063 25.9318 70.1308 28.1563 72.8751 28.1563ZM72.8751 21.5313C73.7898 21.5313 74.5313 22.2728 74.5313 23.1875 74.5313 24.1023 73.7898 24.8438 72.8751 24.8438 71.9603 24.8438 71.2188 24.1023 71.2188 23.1875 71.2188 22.2728 71.9603 21.5313 72.8751 21.5313Z" transform="matrix(1.16981 0 0 1 745 461)"/><path d="M69.5626 41.4063C69.5626 45.0651 72.5288 48.0313 76.1876 48.0313 79.8464 48.0313 82.8126 45.0651 82.8126 41.4063 82.8126 37.7475 79.8464 34.7813 76.1876 34.7813 72.5288 34.7813 69.5626 37.7475 69.5626 41.4063ZM79.5001 41.4063C79.5001 43.2358 78.0171 44.7188 76.1876 44.7188 74.3581 44.7188 72.8751 43.2358 72.8751 41.4063 72.8751 39.5768 74.3581 38.0938 76.1876 38.0938 78.0171 38.0938 79.5001 39.5768 79.5001 41.4063Z" transform="matrix(1.16981 0 0 1 745 461)"/></g></g></g><g clip-path="url(#clip25)"><g clip-path="url(#clip26)"><g clip-path="url(#clip27)"><path d="M881.961 563.426C877.927 561.927 875.971 557.484 877.433 553.547 878.896 549.609 883.374 547.556 887.312 549.019 891.346 550.517 893.303 554.96 891.84 558.898 890.378 562.836 885.899 564.888 881.961 563.426ZM902.545 557.737C902.661 556.249 902.644 554.822 902.4 553.42L905.613 549.477 903.44 544.735 898.355 544.595C897.452 543.494 896.382 542.55 895.18 541.667L894.636 536.656 889.834 534.872 886.151 538.313C884.664 538.198 883.237 538.215 881.835 538.459L877.891 535.245 873.149 537.419 873.009 542.504C871.909 543.407 870.965 544.477 870.081 545.679L865.071 546.222 863.287 551.025 866.728 554.707C866.613 556.195 866.629 557.622 866.874 559.024L863.66 562.967 865.773 567.578 870.858 567.718C871.761 568.818 872.831 569.762 874.033 570.646L874.577 575.657 879.379 577.44 883.062 573.999C884.549 574.114 885.976 574.098 887.378 573.854L891.322 577.067 896.028 574.99 896.168 569.905C897.268 569.002 898.344 567.871 899.192 566.765L904.203 566.222 905.987 561.419 902.545 557.737Z"/><path d="M847.269 590.325C843.235 588.826 841.279 584.383 842.741 580.445 844.24 576.411 848.682 574.455 852.62 575.917 856.654 577.416 858.611 581.859 857.148 585.797 855.686 589.734 851.303 591.823 847.269 590.325L847.269 590.325ZM867.708 580.319 870.921 576.376 868.748 571.634 863.663 571.494C862.76 570.393 861.594 569.414 860.488 568.566L859.945 563.555 855.142 561.771 851.46 565.212C849.972 565.097 848.545 565.114 847.143 565.358L843.199 562.144 838.589 564.258 838.353 569.307C837.253 570.21 836.273 571.376 835.425 572.482L830.414 573.025 828.631 577.828 832.072 581.51C831.957 582.998 831.973 584.425 832.217 585.827L829.1 589.806 831.213 594.416 836.262 594.652C837.165 595.753 838.236 596.697 839.438 597.58L839.981 602.591 844.783 604.375 848.466 600.934C849.953 601.049 851.38 601.032 852.783 600.788L856.726 604.002 861.372 601.792 861.572 596.839C862.673 595.936 863.617 594.866 864.5 593.664L869.511 593.121 871.295 588.318 867.854 584.636C867.969 583.148 867.952 581.721 867.708 580.319Z"/></g></g></g><text font-family="Calibri,Calibri_MSFontService,sans-serif" font-weight="400" font-size="37" transform="matrix(1 0 0 1 1429.34 1531)">Annotation<tspan font-size="37" x="44.9625" y="44">(GTF)</tspan></text><rect x="1613" y="1438" width="404" height="114.001" stroke="#FC8D59" stroke-width="10.3125" stroke-miterlimit="8" fill="none"/><text font-family="Calibri,Calibri_MSFontService,sans-serif" font-weight="400" font-size="64" transform="matrix(1 0 0 1 1684.02 1516)">Reference<tspan font-size="37" x="-234.254" y="-92">Genome </tspan><tspan font-size="37" x="-227.952" y="-48">(FASTA)</tspan></text><rect x="816" y="1779" width="577" height="114" stroke="#F8C141" stroke-width="10.3125" stroke-miterlimit="8" fill="none"/><text font-family="Calibri,Calibri_MSFontService,sans-serif" font-weight="400" font-size="64" transform="matrix(1 0 0 1 849.463 1857)">Transcript<tspan font-size="64" x="272.296" y="0">index</tspan><tspan font-size="64" x="428.313" y="0">file</tspan></text><rect x="191" y="1436" width="495" height="115" stroke="#15918A" stroke-width="10.3125" stroke-miterlimit="8" fill="none"/><text font-family="Calibri,Calibri_MSFontService,sans-serif" font-weight="400" font-size="64" transform="matrix(1 0 0 1 228.934 1515)">Simulated<tspan font-size="64" x="275.435" y="0">reads</tspan></text><rect x="96.9999" y="2120" width="559" height="160" stroke="#F8C141" stroke-width="10.3125" stroke-miterlimit="8" fill="none"/><text font-family="Calibri,Calibri_MSFontService,sans-serif" font-weight="400" font-size="64" transform="matrix(1 0 0 1 236.129 2183)">LR<tspan font-size="64" x="61.875" y="0">-</tspan><tspan font-size="64" x="81.3542" y="0">defined </tspan><tspan font-size="64" x="-43.8854" y="77">transcriptome</tspan></text><path d="M381.156 2007.98 381.505 2093.68 371.192 2093.72 370.844 2008.02ZM391.796 2088.48 376.453 2119.48 360.859 2088.61Z" fill="#F8C141"/><path d="M656.008 2194.84 797.372 2195.07 797.356 2205.38 655.992 2205.16ZM792.233 2184.75 823.145 2200.27 792.183 2215.69Z" fill="#F8C141"/><path d="M443.542 1551 443.542 1658.84 376 1658.84 381.156 1653.69 381.156 1730.6 370.844 1730.6 370.844 1648.53 438.386 1648.53 433.23 1653.69 433.23 1551ZM391.469 1725.44 376 1756.38 360.531 1725.44Z" fill="#15918A"/><path d="M1612.74 1500.08 1409.76 1499.26 1409.8 1488.95 1612.79 1489.77ZM1414.87 1509.59 1384 1494 1415 1478.66Z" fill="#FC8D59"/><rect x="1090.5" y="1639.5" width="29.0002" height="31.0002" stroke="#FFFFFF" stroke-width="4.58333" stroke-miterlimit="8" fill="#FFFFFF"/><text fill="#34928B" font-family="Arial,Arial_MSFontService,sans-serif" font-style="italic" font-weight="400" font-size="37" transform="matrix(1 0 0 1 960.797 1665)">sqanti<tspan font-size="37" x="98.5416" y="0">-</tspan>sim.py sim</text><path d="M5.15619-0.0255573 5.92522 155.126-4.38716 155.177-5.15619 0.0255573ZM16.212 149.919 0.896818 180.933-14.7251 150.072Z" fill="#F8C141" transform="matrix(-1 0 0 1 1103.9 1893)"/><rect x="1512" y="1778" width="606" height="114" stroke="#F8C141" stroke-width="10.3125" stroke-miterlimit="8" fill="none"/><text font-family="Calibri,Calibri_MSFontService,sans-serif" font-weight="400" font-size="64" transform="matrix(1 0 0 1 1550.41 1857)">Reduced annotation</text><path d="M1819.46 1892 1819.46 1963.85 1103 1963.85 1108.16 1958.7 1108.16 2047.74 1097.84 2047.74 1097.84 1953.54 1814.3 1953.54 1809.15 1958.7 1809.15 1892ZM1118.47 2042.58 1103 2073.52 1087.53 2042.58Z" fill="#F8C141"/><path d="M0.0255409-5.15619 139.921-4.46322 139.87 5.84915-0.0255409 5.15619ZM134.816-14.8011 165.676 0.820669 134.663 16.136Z" fill="#F8C141" transform="matrix(1 0 0 -1 1383 2199.82)"/><rect x="1549" y="1997" width="577" height="404" stroke="#57802D" stroke-width="10.3125" stroke-miterlimit="8" fill="none"/><text font-family="Calibri,Calibri_MSFontService,sans-serif" font-weight="400" font-size="64" transform="matrix(1 0 0 1 1748.45 2074)">Report</text><path d="M813.5 93.3333C813.5 91.7685 814.769 90.4999 816.334 90.4999L844.666 90.4999C846.231 90.4999 847.5 91.7685 847.5 93.3333L847.5 104.667C847.5 106.232 846.231 107.5 844.666 107.5L816.334 107.5C814.769 107.5 813.5 106.232 813.5 104.667Z" stroke="#000000" stroke-width="4.58333" stroke-miterlimit="8" fill="#F28C4F" fill-rule="evenodd"/><path d="M788.5 132.667C788.5 130.918 789.918 129.5 791.667 129.5L804.333 129.5C806.082 129.5 807.5 130.918 807.5 132.667L807.5 146.333C807.5 148.082 806.082 149.5 804.333 149.5L791.667 149.5C789.918 149.5 788.5 148.082 788.5 146.333Z" stroke="#000000" stroke-width="4.58333" stroke-miterlimit="8" fill="#339187" fill-rule="evenodd"/><path d="M775.318 163.863C776.58 162.588 778.637 162.579 779.911 163.841L789.141 172.984C790.416 174.246 790.426 176.303 789.163 177.577L780.02 186.808C778.758 188.082 776.701 188.092 775.427 186.829L766.197 177.686C764.922 176.424 764.912 174.368 766.175 173.093Z" stroke="#000000" stroke-width="4.58333" stroke-miterlimit="8" fill="#7EAFDB" fill-rule="evenodd"/><path d="M812 167.5 821.5 172.25 821.5 181.75 812 186.5 802.5 181.75 802.5 172.25Z" stroke="#000000" stroke-width="4.58333" stroke-miterlimit="8" fill="#EE8C4E" fill-rule="evenodd"/><path d="M836.5 184.5 846 167.5 855.5 184.5Z" stroke="#000000" stroke-width="4.58333" stroke-miterlimit="8" fill="#70A35E" fill-rule="evenodd"/><path d="M849.5 139C849.5 133.753 853.753 129.5 859 129.5 864.247 129.5 868.5 133.753 868.5 139 868.5 144.247 864.247 148.5 859 148.5 853.753 148.5 849.5 144.247 849.5 139Z" stroke="#000000" stroke-width="4.58333" stroke-miterlimit="8" fill="#F9C64F" fill-rule="evenodd"/><path d="M865.5 173.993 873.521 173.993 876 167.5 878.479 173.993 886.5 173.993 880.011 178.007 882.489 184.5 876 180.487 869.511 184.5 871.99 178.007Z" stroke="#000000" stroke-width="4.58333" stroke-miterlimit="8" fill="#9B4931" fill-rule="evenodd"/><path d="M0 0 32.5269 22.424" stroke="#000000" stroke-width="3.4375" stroke-miterlimit="8" fill="none" fill-rule="evenodd" transform="matrix(-1 0 0 1 830.027 107.5)"/><path d="M830.5 107.5 859.269 129.585" stroke="#000000" stroke-width="3.4375" stroke-miterlimit="8" fill="none" fill-rule="evenodd"/><path d="M0 0 26.7028 19.7571" stroke="#000000" stroke-width="3.4375" stroke-miterlimit="8" fill="none" fill-rule="evenodd" transform="matrix(-1 0 0 1 798.203 149.5)"/><path d="M797.5 149.5 811.757 167.529" stroke="#000000" stroke-width="3.4375" stroke-miterlimit="8" fill="none" fill-rule="evenodd"/><path d="M0 0 13.5335 18.8675" stroke="#000000" stroke-width="3.4375" stroke-miterlimit="8" fill="none" fill-rule="evenodd" transform="matrix(-1 0 0 1 859.034 148.5)"/><path d="M859.5 148.5 876.236 167.454" stroke="#000000" stroke-width="3.4375" stroke-miterlimit="8" fill="none" fill-rule="evenodd"/><rect x="84.5001" y="1748.5" width="39.9999" height="22" stroke="#15918A" stroke-width="4.58333" stroke-miterlimit="8" fill="#15918A"/><rect x="127.5" y="1748.5" width="30.9999" height="22" stroke="#F58A53" stroke-width="4.58333" stroke-miterlimit="8" fill="#F58A53"/><rect x="161.5" y="1748.5" width="39.9999" height="22" stroke="#7F7F7F" stroke-width="4.58333" stroke-miterlimit="8" fill="#7F7F7F"/><rect x="138.5" y="1748.5" width="23" height="22" stroke="#7F7F7F" stroke-width="4.58333" stroke-miterlimit="8" fill="#7F7F7F"/><g clip-path="url(#clip28)"><g clip-path="url(#clip29)"><g clip-path="url(#clip30)"><path d="M107.766 95.2875 92.0104 79.5323C89.8677 77.3896 86.9688 76.6333 84.1958 77.1375L78.65 71.5917C83.5656 65.2896 86.4646 57.2229 86.4646 48.6521 86.4646 27.8552 69.449 10.8396 48.6521 10.8396 27.8552 10.8396 10.8396 27.8552 10.8396 48.6521 10.8396 69.449 27.8552 86.4646 48.6521 86.4646 57.2229 86.4646 65.1635 83.5656 71.5917 78.65L77.1375 84.1958C76.6333 86.9688 77.3896 89.8677 79.5323 92.0104L95.2875 107.766C97.0521 109.53 99.3208 110.412 101.59 110.412 103.858 110.412 106.127 109.53 107.892 107.766 111.169 104.236 111.169 98.6906 107.766 95.2875ZM48.526 78.776C31.8885 78.776 18.276 65.1635 18.276 48.526 18.276 31.8885 31.8885 18.276 48.526 18.276 65.1635 18.276 78.776 31.8885 78.776 48.526 78.776 65.1635 65.1635 78.776 48.526 78.776Z" transform="matrix(-1.03306 0 0 1 152 1707)"/></g></g></g><path d="M86.1419 1737.21C90.037 1732.2 97.4434 1729.43 102.685 1731.02 102.704 1731.03 102.723 1731.04 102.742 1731.04" stroke="#000000" stroke-width="6.875" stroke-miterlimit="8" fill="none" fill-rule="evenodd"/><path d="M772.5 1332.7C772.5 1329.27 775.274 1326.5 778.695 1326.5L878.305 1326.5C881.726 1326.5 884.5 1329.27 884.5 1332.7L884.5 1403.3C884.5 1406.73 881.726 1409.5 878.305 1409.5L778.695 1409.5C775.274 1409.5 772.5 1406.73 772.5 1403.3Z" stroke="#000000" stroke-width="4.58333" stroke-miterlimit="8" fill="#FFFFFF" fill-rule="evenodd"/><path d="M0 0 4.55049 11.2952" stroke="#000000" stroke-width="2.29167" stroke-miterlimit="8" fill="none" fill-rule="evenodd" transform="matrix(1 0 0 -1 814 1349.3)"/><path d="M822.939 1349.3 818 1338" stroke="#000000" stroke-width="2.29167" stroke-miterlimit="8" fill="none" fill-rule="evenodd"/><path d="M0 0 4.55049 11.2952" stroke="#000000" stroke-width="2.29167" stroke-miterlimit="8" fill="none" fill-rule="evenodd" transform="matrix(1 0 0 -1 836 1349.3)"/><path d="M844.939 1349.3 840 1338" stroke="#000000" stroke-width="2.29167" stroke-miterlimit="8" fill="none" fill-rule="evenodd"/><rect x="797.5" y="1349.5" width="16.9998" height="8.99988" stroke="#15918A" stroke-width="4.58333" stroke-miterlimit="8" fill="#15918A"/><rect x="823.5" y="1349.5" width="12.0001" height="8.99988" stroke="#F58A53" stroke-width="4.58333" stroke-miterlimit="8" fill="#F58A53"/><rect x="845.5" y="1349.5" width="15.9998" height="8.99988" stroke="#FDC659" stroke-width="4.58333" stroke-miterlimit="8" fill="#FDC659"/><rect x="781.5" y="1385.5" width="10.0003" height="5.99988" stroke="#15918A" stroke-width="4.58333" stroke-miterlimit="8" fill="#15918A"/><rect x="792.5" y="1385.5" width="8.00024" height="5.99988" stroke="#F58A53" stroke-width="4.58333" stroke-miterlimit="8" fill="#F58A53"/><rect x="801.5" y="1385.5" width="9.99994" height="5.99988" stroke="#FDC659" stroke-width="4.58333" stroke-miterlimit="8" fill="#FDC659"/><rect x="817.5" y="1385.5" width="9.99994" height="5.99988" stroke="#15918A" stroke-width="4.58333" stroke-miterlimit="8" fill="#15918A"/><rect x="827.5" y="1385.5" width="8.00024" height="5.99988" stroke="#F58A53" stroke-width="4.58333" stroke-miterlimit="8" fill="#F58A53"/><rect x="836.5" y="1385.5" width="3.00012" height="5.99988" stroke="#FDC659" stroke-width="4.58333" stroke-miterlimit="8" fill="#FDC659"/><rect x="850.5" y="1385.5" width="6.00018" height="5.99988" stroke="#15918A" stroke-width="4.58333" stroke-miterlimit="8" fill="#15918A"/><rect x="856.5" y="1385.5" width="7.99988" height="5.99988" stroke="#F58A53" stroke-width="4.58333" stroke-miterlimit="8" fill="#F58A53"/><rect x="865.5" y="1385.5" width="9.99994" height="5.99988" stroke="#FDC659" stroke-width="4.58333" stroke-miterlimit="8" fill="#FDC659"/><path d="M817.5 1410.5 817.5 1421.88" stroke="#000000" stroke-width="20.625" stroke-miterlimit="8" fill="none" fill-rule="evenodd"/><path d="M839.5 1410.5 839.5 1421.88" stroke="#000000" stroke-width="20.625" stroke-miterlimit="8" fill="none" fill-rule="evenodd"/><path d="M801.5 1424.33C801.5 1423.87 801.873 1423.5 802.333 1423.5L854.667 1423.5C855.127 1423.5 855.5 1423.87 855.5 1424.33L855.5 1427.67C855.5 1428.13 855.127 1428.5 854.667 1428.5L802.333 1428.5C801.873 1428.5 801.5 1428.13 801.5 1427.67Z" stroke="#000000" stroke-width="4.58333" stroke-miterlimit="8" fill-rule="evenodd"/><text font-family="Calibri,Calibri_MSFontService,sans-serif" font-weight="400" font-size="37" transform="matrix(1 0 0 1 1668.36 2129)">Known<tspan font-size="37" x="262.698" y="0">Novel</tspan><tspan fill="#D31238" font-family="Gontserrat,Gontserrat_MSFontService,sans-serif" font-size="60" x="-793.231" y="-1898">SQANTI</tspan><tspan fill="#D31238" font-family="Gontserrat,Gontserrat_MSFontService,sans-serif" font-size="60" x="-565.21" y="-1898">-</tspan><tspan fill="#D31238" font-family="Gontserrat,Gontserrat_MSFontService,sans-serif" font-weight="700" font-size="60" x="-543.439" y="-1898">SIM</tspan></text><path d="M1272.39 182.189C1275.04 179.575 1279.3 179.601 1281.91 182.246L1281.94 182.272 1281.94 182.27 1304.39 204.977C1315.45 216.164 1315.34 234.198 1304.16 245.257 1292.97 256.316 1274.93 256.213 1263.87 245.026L1252.33 233.344 1252.33 233.344 1252.33 233.344 1252.31 233.328 1252.31 233.327 1251.47 232.282C1249.76 229.658 1250.06 226.108 1252.38 223.821 1254.69 221.534 1258.24 221.268 1260.85 223.009L1261.88 223.864 1261.88 223.863 1261.9 223.878 1261.9 223.879 1261.9 223.879 1273.44 235.555C1279.28 241.454 1288.78 241.508 1294.68 235.677 1300.58 229.845 1300.64 220.335 1294.81 214.436L1272.36 191.735 1272.37 191.733 1272.34 191.712C1269.72 189.066 1269.75 184.802 1272.39 182.189Z" fill="#D31238" fill-rule="evenodd"/><path d="M1285.3 225.973C1282.65 228.587 1278.39 228.561 1275.77 225.915L1275.75 225.889 1275.75 225.891 1253.3 203.184C1242.24 191.997 1242.35 173.963 1253.53 162.904 1264.72 151.845 1282.75 151.948 1293.81 163.135L1305.36 174.817 1305.36 174.817 1305.36 174.818 1305.38 174.833 1305.38 174.835 1306.22 175.879C1307.93 178.503 1307.63 182.053 1305.31 184.34 1303 186.627 1299.44 186.894 1296.84 185.152L1295.81 184.297 1295.8 184.299 1295.79 184.283 1295.79 184.283 1295.79 184.283 1284.25 172.606C1278.41 166.707 1268.9 166.653 1263.01 172.485 1257.11 178.316 1257.05 187.826 1262.88 193.725L1285.33 216.426 1285.32 216.428 1285.35 216.45C1287.96 219.095 1287.94 223.359 1285.3 225.973Z" fill="#D31238" fill-rule="evenodd"/><text fill="#D31238" font-family="Gontserrat,Gontserrat_MSFontService,sans-serif" font-weight="400" font-size="60" transform="matrix(1 0 0 1 874.515 665)">SQANTI<tspan font-size="60" x="228.021" y="0">-</tspan><tspan font-weight="700" font-size="60" x="249.792" y="0">SIM</tspan></text><path d="M1271.78 616.066C1274.42 613.453 1278.68 613.478 1281.3 616.124L1281.32 616.15 1281.32 616.148 1303.77 638.855C1314.83 650.042 1314.73 668.076 1303.54 679.135 1292.35 690.194 1274.32 690.091 1263.26 678.904L1251.71 667.222 1251.71 667.222 1251.71 667.222 1251.7 667.206 1251.7 667.204 1250.85 666.16C1249.14 663.536 1249.45 659.986 1251.76 657.699 1254.08 655.412 1257.63 655.146 1260.23 656.887L1261.27 657.742 1261.27 657.741 1261.29 657.756 1261.29 657.756 1261.29 657.756 1272.83 669.433C1278.66 675.332 1288.17 675.386 1294.07 669.555 1299.97 663.723 1300.02 654.213 1294.19 648.314L1271.75 625.613 1271.75 625.611 1271.72 625.589C1269.11 622.944 1269.13 618.68 1271.78 616.066Z" fill="#D31238" fill-rule="evenodd"/><path d="M1284.68 659.851C1282.04 662.464 1277.78 662.439 1275.16 659.793L1275.14 659.767 1275.14 659.769 1252.69 637.062C1241.63 625.875 1241.73 607.841 1252.92 596.782 1264.11 585.723 1282.14 585.826 1293.2 597.013L1304.75 608.695 1304.75 608.695 1304.75 608.695 1304.76 608.711 1304.76 608.713 1305.61 609.757C1307.32 612.381 1307.01 615.931 1304.7 618.218 1302.38 620.505 1298.83 620.771 1296.23 619.03L1295.19 618.175 1295.19 618.176 1295.17 618.161 1295.17 618.161 1295.17 618.161 1283.63 606.484C1277.8 600.585 1268.29 600.531 1262.39 606.362 1256.49 612.194 1256.44 621.704 1262.27 627.603L1284.71 650.304 1284.71 650.306 1284.73 650.328C1287.35 652.973 1287.33 657.237 1284.68 659.851Z" fill="#D31238" fill-rule="evenodd"/><text fill="#D31238" font-family="Gontserrat,Gontserrat_MSFontService,sans-serif" font-weight="400" font-size="60" transform="matrix(1 0 0 1 875.004 1459)">SQANTI<tspan font-size="60" x="228.021" y="0">-</tspan><tspan font-weight="700" font-size="60" x="249.792" y="0">SIM</tspan></text><path d="M1272.27 1410.39C1274.91 1407.77 1279.17 1407.8 1281.79 1410.44L1281.81 1410.47 1281.81 1410.47 1304.26 1433.17C1315.32 1444.36 1315.22 1462.39 1304.03 1473.45 1292.84 1484.51 1274.81 1484.41 1263.75 1473.22L1252.2 1461.54 1252.2 1461.54 1252.2 1461.54 1252.18 1461.52 1252.19 1461.52 1251.34 1460.48C1249.63 1457.85 1249.94 1454.3 1252.25 1452.02 1254.56 1449.73 1258.12 1449.46 1260.72 1451.21L1261.76 1452.06 1261.76 1452.06 1261.77 1452.07 1261.77 1452.08 1261.77 1452.08 1273.32 1463.75C1279.15 1469.65 1288.66 1469.7 1294.56 1463.87 1300.46 1458.04 1300.51 1448.53 1294.68 1442.63L1272.24 1419.93 1272.24 1419.93 1272.21 1419.91C1269.6 1417.26 1269.62 1413 1272.27 1410.39Z" fill="#D31238" fill-rule="evenodd"/><path d="M1285.17 1454.17C1282.53 1456.78 1278.26 1456.76 1275.65 1454.11L1275.63 1454.09 1275.62 1454.09 1253.18 1431.38C1242.12 1420.19 1242.22 1402.16 1253.41 1391.1 1264.59 1380.04 1282.63 1380.14 1293.69 1391.33L1305.24 1403.01 1305.24 1403.01 1305.24 1403.01 1305.25 1403.03 1305.25 1403.03 1306.09 1404.08C1307.81 1406.7 1307.5 1410.25 1305.19 1412.54 1302.87 1414.82 1299.32 1415.09 1296.71 1413.35L1295.68 1412.49 1295.68 1412.5 1295.66 1412.48 1295.66 1412.48 1295.66 1412.48 1284.12 1400.8C1278.29 1394.9 1268.78 1394.85 1262.88 1400.68 1256.98 1406.51 1256.93 1416.02 1262.76 1421.92L1285.2 1444.62 1285.2 1444.62 1285.22 1444.65C1287.84 1447.29 1287.82 1451.56 1285.17 1454.17Z" fill="#D31238" fill-rule="evenodd"/><text fill="#D31238" font-family="Gontserrat,Gontserrat_MSFontService,sans-serif" font-weight="400" font-size="60" transform="matrix(1 0 0 1 875.384 2165)">SQANTI<tspan font-size="60" x="228.021" y="0">-</tspan><tspan font-weight="700" font-size="60" x="249.792" y="0">SIM</tspan></text><path d="M1272.65 2116.25C1275.29 2113.64 1279.55 2113.66 1282.17 2116.31L1282.19 2116.34 1282.19 2116.33 1304.64 2139.04C1315.7 2150.23 1315.6 2168.26 1304.41 2179.32 1293.22 2190.38 1275.19 2190.28 1264.13 2179.09L1252.58 2167.41 1252.58 2167.41 1252.58 2167.41 1252.56 2167.39 1252.57 2167.39 1251.72 2166.35C1250.01 2163.72 1250.32 2160.17 1252.63 2157.88 1254.94 2155.6 1258.5 2155.33 1261.1 2157.07L1262.14 2157.93 1262.14 2157.93 1262.15 2157.94 1262.15 2157.94 1262.15 2157.94 1273.7 2169.62C1279.53 2175.52 1289.04 2175.57 1294.94 2169.74 1300.84 2163.91 1300.89 2154.4 1295.06 2148.5L1272.62 2125.8 1272.62 2125.8 1272.59 2125.77C1269.98 2123.13 1270 2118.87 1272.65 2116.25Z" fill="#D31238" fill-rule="evenodd"/><path d="M1285.55 2160.04C1282.91 2162.65 1278.64 2162.62 1276.03 2159.98L1276.01 2159.95 1276 2159.95 1253.56 2137.25C1242.5 2126.06 1242.6 2108.03 1253.79 2096.97 1264.97 2085.91 1283.01 2086.01 1294.07 2097.2L1305.62 2108.88 1305.62 2108.88 1305.62 2108.88 1305.63 2108.9 1305.63 2108.9 1306.47 2109.94C1308.19 2112.57 1307.88 2116.12 1305.57 2118.4 1303.25 2120.69 1299.7 2120.96 1297.09 2119.22L1296.06 2118.36 1296.06 2118.36 1296.04 2118.35 1296.04 2118.35 1296.04 2118.35 1284.5 2106.67C1278.67 2100.77 1269.16 2100.72 1263.26 2106.55 1257.36 2112.38 1257.31 2121.89 1263.14 2127.79L1285.58 2150.49 1285.58 2150.49 1285.6 2150.51C1288.22 2153.16 1288.2 2157.42 1285.55 2160.04Z" fill="#D31238" fill-rule="evenodd"/><g clip-path="url(#clip31)"><g clip-path="url(#clip32)"><g clip-path="url(#clip33)"><g clip-path="url(#clip34)"><path d="M593.692 458.814C593.692 454.343 597.316 450.718 601.787 450.718L667.116 450.718C671.587 450.718 675.211 454.343 675.211 458.814L675.211 555.552C675.211 560.023 671.587 563.647 667.116 563.647L601.787 563.647C597.316 563.647 593.692 560.023 593.692 555.552Z" stroke="#000000" stroke-width="2.16666" stroke-linejoin="round" stroke-miterlimit="10" fill="none" fill-rule="evenodd" transform="matrix(1 0 0 1.00324 203.411 1525.42)"/><path d="M634.451 435.276C637.777 435.276 640.474 437.766 640.474 440.836L640.474 443.503 644.836 443.503C646.062 443.503 647.057 444.496 647.057 445.721L647.057 456.811 621.845 456.811 621.845 445.721C621.845 444.496 622.84 443.503 624.067 443.503L628.429 443.503 628.429 440.836C628.429 437.766 631.125 435.276 634.451 435.276Z" stroke="#000000" stroke-width="2.16666" stroke-linejoin="round" stroke-miterlimit="10" fill="#8989A5" fill-rule="evenodd" transform="matrix(1 0 0 1.00324 203.411 1525.42)"/><path d="M593.272 466.371 597.053 466.371 597.053 471.098 593.272 471.098Z" stroke="#FFFFFF" stroke-width="0.962961" stroke-linejoin="round" stroke-miterlimit="10" fill="#FFFFFF" transform="matrix(1 0 0 1.00324 203.411 1525.42)"/><path d="M624.976 478.955C623.653 484.455 618.122 487.842 612.623 486.519 607.122 485.197 603.736 479.666 605.058 474.167 606.165 469.563 610.282 466.318 615.017 466.318L615.017 476.561Z" stroke="#000000" stroke-width="1.44444" stroke-linejoin="round" stroke-miterlimit="10" fill="#15918A" fill-rule="evenodd" transform="matrix(1 0 0 1.00324 203.411 1525.42)"/><path d="M617.359 464.478C623.011 464.473 627.599 469.052 627.604 474.704 627.605 475.54 627.503 476.372 627.303 477.183L617.368 474.715Z" stroke="#000000" stroke-width="1.44444" stroke-linejoin="round" stroke-miterlimit="10" fill="#F58A53" fill-rule="evenodd" transform="matrix(1 0 0 1.00324 203.411 1525.42)"/><path d="M638.286 466.738 642.593 466.738 642.593 485.332 638.286 485.332Z" stroke="#000000" stroke-width="1.44444" stroke-linejoin="round" stroke-miterlimit="10" fill="#75AED8" transform="matrix(1 0 0 1.00324 203.411 1525.42)"/><path d="M644.799 469.68 649.106 469.68 649.106 485.227 644.799 485.227Z" stroke="#000000" stroke-width="1.44444" stroke-linejoin="round" stroke-miterlimit="10" fill="#F48C53" transform="matrix(1 0 0 1.00324 203.411 1525.42)"/><path d="M651.417 471.676 655.724 471.676 655.724 485.227 651.417 485.227Z" stroke="#000000" stroke-width="1.44444" stroke-linejoin="round" stroke-miterlimit="10" fill="#81C676" transform="matrix(1 0 0 1.00324 203.411 1525.42)"/><path d="M658.035 474.827 662.342 474.827 662.342 485.227 658.035 485.227Z" stroke="#000000" stroke-width="1.44444" stroke-linejoin="round" stroke-miterlimit="10" fill="#E5694C" transform="matrix(1 0 0 1.00324 203.411 1525.42)"/><path d="M614.492 507.235 641.441 507.235" stroke="#15918A" stroke-width="2.16666" stroke-linejoin="round" stroke-miterlimit="10" fill="none" fill-rule="evenodd" transform="matrix(1 0 0 1.00324 203.411 1525.42)"/><path d="M614.492 511.963 646.487 511.963" stroke="#F58A53" stroke-width="2.16666" stroke-linejoin="round" stroke-miterlimit="10" fill="none" fill-rule="evenodd" transform="matrix(1 0 0 1.00324 203.411 1525.42)"/><path d="M614.492 526.67 647.891 526.67" stroke="#FDC659" stroke-width="2.16666" stroke-linejoin="round" stroke-miterlimit="10" fill="none" fill-rule="evenodd" transform="matrix(1 0 0 1.00324 203.411 1525.42)"/><path d="M614.492 531.712 646.487 531.712" stroke="#F58A53" stroke-width="2.16666" stroke-linejoin="round" stroke-miterlimit="10" fill="none" fill-rule="evenodd" transform="matrix(1 0 0 1.00324 203.411 1525.42)"/><path d="M614.492 545.684 638.226 545.684" stroke="#FDC659" stroke-width="2.16666" stroke-linejoin="round" stroke-miterlimit="10" fill="none" fill-rule="evenodd" transform="matrix(1 0 0 1.00324 203.411 1525.42)"/><path d="M614.492 550.726 646.487 550.726" stroke="#15918A" stroke-width="2.16666" stroke-linejoin="round" stroke-miterlimit="10" fill="none" fill-rule="evenodd" transform="matrix(1 0 0 1.00324 203.411 1525.42)"/><g clip-path="url(#clip35)"><g clip-path="url(#clip36)"><g clip-path="url(#clip37)"><path d="M4.83597 9.8204 0.939431 5.92387 0.741377 6.12192 4.82868 10.2092 12.7014 2.90402 12.5107 2.69868 4.83597 9.8204Z" stroke="#70AD47" stroke-width="1.45368" fill="#70AD47" transform="matrix(1 0 0 1.01107 801.463 2030.66)"/></g></g></g><g clip-path="url(#clip38)"><g clip-path="url(#clip39)"><g clip-path="url(#clip40)"><path d="M4.83595 9.82038 0.939429 5.92385 0.741375 6.1219 4.82867 10.2092 12.7014 2.90401 12.5107 2.69867 4.83595 9.82038Z" stroke="#70AD47" stroke-width="1.45367" fill="#70AD47" transform="matrix(1 0 0 1.00324 801.463 2069.02)"/></g></g></g><g clip-path="url(#clip41)"><g clip-path="url(#clip42)"><g clip-path="url(#clip43)"><path d="M2.35838 11.2515 6.63458 6.97534 11.0519 11.3927 11.2515 11.1931 6.83418 6.77573 11.2515 2.35838 11.0519 2.15878 6.63458 6.57614 2.35838 2.29994 2.15878 2.49955 6.43497 6.77573 2.15878 11.0519 2.35838 11.2515Z" stroke="#FF0000" stroke-width="0.141157" fill="#FF0000" transform="matrix(1 0 0 1.00324 801.463 2049.84)"/></g></g></g><path d="M672.9 515.849 676.682 515.849 676.682 538.225 672.9 538.225Z" stroke="#FFFFFF" stroke-width="0.962961" stroke-linejoin="round" stroke-miterlimit="10" fill="#FFFFFF" transform="matrix(1 0 0 1.00324 203.411 1525.42)"/><g clip-path="url(#clip44)"><g clip-path="url(#clip45)"><g clip-path="url(#clip46)"><path d="M691.349 545.432 685.112 539.195C684.263 538.346 683.116 538.047 682.018 538.246L679.823 536.051C681.768 533.556 682.916 530.362 682.916 526.969 682.916 518.736 676.18 511.999 667.947 511.999 659.714 511.999 652.977 518.736 652.977 526.969 652.977 535.203 659.714 541.939 667.947 541.939 671.34 541.939 674.483 540.791 677.028 538.845L679.224 541.041C679.024 542.138 679.324 543.286 680.172 544.134L686.409 550.371C687.108 551.07 688.006 551.42 688.904 551.42 689.802 551.42 690.701 551.07 691.399 550.371 692.696 548.974 692.696 546.778 691.349 545.432ZM667.897 538.895C661.31 538.895 655.921 533.505 655.921 526.92 655.921 520.332 661.31 514.944 667.897 514.944 674.483 514.944 679.873 520.332 679.873 526.92 679.873 533.505 674.483 538.895 667.897 538.895Z" transform="matrix(1 0 0 1.00324 203.411 1525.42)"/></g></g></g><g clip-path="url(#clip47)"><g clip-path="url(#clip48)"><g clip-path="url(#clip49)"><path d="M6.34719 12.8893 1.23301 7.77507 0.973056 8.03501 6.33763 13.3996 16.6706 3.81152 16.4202 3.54201 6.34719 12.8893Z" stroke="#70AD47" stroke-width="1.90794" fill="#70AD47" transform="matrix(1 0 0 1.0092 862.812 2045.63)"/></g></g></g></g></g></g></g></g></svg>